<?xml version="1.0" encoding="UTF-8"?>
<svg id="Layer_1" data-name="Layer 1" xmlns="http://www.w3.org/2000/svg" viewBox="0 0 884.53 236.68">
  <defs>
    <style>
      .cls-1 {
        fill: #010101;
      }

      .cls-2 {
        fill: #fff;
      }

      .cls-3 {
        fill: #f08223;
      }

      .cls-4 {
        fill: none;
        stroke: #1d1d1b;
        stroke-miterlimit: 10;
        stroke-width: 2px;
      }
    </style>
  </defs>
  <path class="cls-1" d="M740.89,151.05c-.3,.12-.3,.34-.24,.52,.06,.17,.24,.28,.41,.34,.46,.24,.92,.47,1.09,.75,1.11,1.27,1.62,2.03,1.62,3.52,0,1.85-.92,2.48-.57,4.1,.52,2.77,3.18,5.83,3.18,8.94-.35,2.6-2.37,2.6-3.69,4.21-.29,.53-.53,.98-.53,1.85,0,.76-.34,2.03,.53,2.03,.98,.23,1.33-1.62,2.08-1.62,1.26,.35,1.26,2.13,2.36,2.13h49.53c-.35-.51-.58-1.27-1.11-1.62-2.37-2.24-8.59-5.14-9.58-8.82-2.02-5.37,.52-12.47,1.27-18.42,2.6-17.61,1.55-27.3-1.61-41.86-1.74-8.36-3-15.41-5.66-22.79-.69-1.91-2.02-3.81-2.82-5.71-.75-1.1-1.11-2.72-1.45-4.1-.86-4.05-.35-7.91-1.55-11.6-.7-2.25-2.84-5.26-4.79-6.65-1.73-1.2-4.34-1.38-6-2.42-3.87-2.08-7.85-4.1-11.95-6.69-.51-.35-2.14-.87-3.01-.35,4.52,3.18,7.45,7.04,8.72,12.53,.56,2.89,1.34,4.97-1.27,6.24-.75,.52-5.72,3.63-7.74,9.06-.79,1.4-3.91,8.6-7.55,15.58-8.32-3.86-15.07-4.1-21.02-.98-12.41,5.94-16.85,20.26-17.37,34.57-.51,13.8,5.49,30.36,3.87,43.4-.75,4.9-3.35,8.5-9.58,9.88-.75,0-1.27,.23-1.04,.75h31.34c1.62,0,1.85-1.04,3.47-2.37,1.85-1.79,0-4.15,0-8.6,0-6.53,2.53-12.93,4.61-18.99,2.3-6.64,4.33-13.28,5.72-20.15,.74,3.06,1.49,7.15,2.53,11.08,.98,3.7,2.19,7.21,3.98,9.58-.75,.28-1.45,.75-2.14,1.04-1.39,.51-2.82,1.15-4.04,1.62"/>
  <path class="cls-2" d="M760.41,175.92c.82-3.76-.29-6.7-1.55-9.24-.93-2.01-2.49-4.1-3.88-6.46-1.32-2.54-.63-5.08-.99-7.56-.33-2.54-2.47-4.91-5.02-4.67-2.59-2.78-3.57-6.87-4.5-10.45-1.27-4.96-2.54-10.67-3.52-14.48-.06-.23-.18-.52-.4-.6-.29-.1-.65,.08-.7,.41-1.49,8.32-3.62,15.36-5.89,22.11-2.36,7.34-6.35,16.8-5.24,24.88,.23,1.32,1.03,2.94-.22,4.43-1.27,1.29-1.11,1.52-2.38,1.52-4.44,.17-9.35,0-13.45-.06-.85-.12,3.35-2.19,3.47-6.07,0-4.09-1.84-8.94-3.92-15.52-2.02-6.7-2.77-15.58-1.8-20.54,0-.47,.58-.76,.75,0,.58,3.11-.75,10.45,1.04,14.08,.34,.76,2.19,.23,2.59-.52,3.59-4.04,5.31-12.88,5.82-18.02,.75-6.98-1.84-15.06,0-21.29,1.22-4.27,4.11-8.15,8.61-9.93,5.08-2.02,11.02-.47,12.41,5.83,.76,2.83-.12,6.18,.52,8.31,.35,1.27,.81,2.42,1.73,3.8,2.56,3.7,4.5,6.53,5.73,11.04,.74,2.08,.51,4.96,0,6.22-.58,.76,.51,1.33,1.27,.76,.74-1.62,.74-2.89,1.26-4.38,.76-1.86,1.1-4.45,1.57-6.07,1.04-2.53,2.89-4.9,3.41-7.73,1.5-6.46-1.16-13.33-6.01-17.67-2.94-2.65-5.83-5.02-9.17-7.09,2.42-5.03,4.91-9.46,7.04-14.61,1.74-4.44,4.27-7.45,8.03-9.23,4.33,3.97,4.44,2.54,4.73,9.11,.24,3.29,.4,8.09,.28,11.43-.16,4.04,.94,10.79,.35,13.16-1.03,7.55-3.9,15.64-3.9,23.2-.25,7.33,1.03,17.43,7.25,22.39,.76,.52,2.31-.57,2.31-1.61,.7-2.72,.46-5.61,.35-8.55-.24-4.91,.46-9.81,2.14-14.5,1.03-2.87,2.24-5.53,4.05-8.42,.45-.75,1.32-.23,.98,.52-.23,0-3.35,6.3-4.67,11.72-1.62,5.77-2.31,14.59,1.15,19.51,1.84,3.12,3.3,4.85,4.62,7.79,4.21,9.13,1.1,16.79-5.31,20.6-3.41,1.97-6.46,2.43-10.9,2.43"/>
  <path class="cls-2" d="M746.78,153.06c-.93-.12-1.28-.98-1.21-1.62,.12-1.16,1.79-1.39,2.72-1.39,1.32,.06,2.48,.63,2.81,1.73,.29,.92,.17,1.96-.28,2.89-1.44,2.82-2.66,1.49-4.73,2.01-.7,.11-.76,.53-.13,.81,.81,.34,1.84,.28,2.89,.28,.98,0,2.31-.63,2.31,1.22,0,3.22,1.38,8.37,3.13,11.25,1.04,1.74,2.83,2.78,2.83,3.41,0,.29-.28,.29-.76,.29-.85-1.04-2.65-1.04-3.97-.86-.76,0-.99,1.1-2.03,1.32-.23,0-1.09,.12-1.33-.46-.17-.86-.92-1.15-1.03-1.91-.36-1.44,.06-3.28-.47-5.03-.28-.97-1.21-2.46-1.96-4.03-.8-1.61-1.38-3.28-.92-4.38,.4-1.44,.85-3.06-.12-4.45-.22-.35,1.21,.23,1.92,0,.45-.18,.34-.7,.34-1.09"/>
  <path class="cls-3" d="M757.17,66.6c-.99,.45-2.19,1.2-1.67,1.55,1.2,1.04,3.22,.69,4.49,3.22,1.11,2.2,1.67,5.03,1.85,7.23,0-.99,.34-3.29,.51-5.32,.25-2.65,2.2-3.35,3.93-2.2,.81,.59,1.04,1.33,2.14,2.02,3.24,1.73,5.72-1.16,5.08-4.15-.52-2.49-2.14-5.54-4.84-4.5-1.62,.57-1.38,2.94-2.72,3.97-1.85,1.11-3.82,.29-5.48-.87-1.39-.97-1.39-1.85-3.3-.97m-7.04,66.54c1.27-3.4,0-8.83-.86-12.81-.41-1.27,1.39-1.79,1.62-.17,1.26,5.13,1.08,9-.76,12.98m-15.51-35.96c3.92,1.1,5.53,3.47,6.45,6.58,.76,2.08,.51,4.45,.76,7.22,.22,2.37,1.38,0,1.56-.88,.11-.75,.87-2.36,2.65-2.48,1.61,0,1.28,1.33,3.76,1.85,1.5,.41,2.36-.12,2.72-1.1,.87-2.13-.53-6.46-2.14-7.73-1.73-1.62-5.59-1.85-5.59,1.49,.16,.87,0,1.33,0,1.33-.57,.29-1.34-.23-1.86-1.33-1.27-2.01-5.72-5.13-8.3-4.96m16.04-49.58c3.06,1.8,7.02,7.85,9.06,10.98,1.09,1.49,2.36,.23,1.85-.76-3.11-4.73-7.05-8.42-10.91-10.22"/>
  <path class="cls-1" d="M748.39,151.05c.47,0,1.23,.75,.88,1.1-.24,.18-.41-.35-1.16-.35-.47,0-.98,.35-.98,0,0-.41,.51-.75,1.26-.75"/>
  <path class="cls-1" d="M120.19,154.45c-2.34,.93-4.77,1.75-7.31,2.46-3.45,1.02-5.63,2.02-6.55,3.01-.95,1.02-1.42,2.18-1.42,3.48,0,1.48,.47,2.7,1.4,3.64,.93,.95,2.3,1.42,4.11,1.42s3.65-.51,5.28-1.53c1.63-1.02,2.78-2.26,3.47-3.73,.68-1.47,1.02-3.38,1.02-5.73v-3.02Zm-14.74-9.92l-16.24-1.9c.61-3.16,1.49-5.64,2.65-7.45,1.15-1.81,2.82-3.38,4.99-4.71,1.56-.96,3.7-1.7,6.43-2.23,2.73-.53,5.68-.79,8.85-.79,5.09,0,9.19,.32,12.28,.95,3.09,.63,5.66,1.96,7.72,3.97,1.45,1.39,2.59,3.36,3.42,5.91,.83,2.55,1.25,4.99,1.25,7.3v21.76c0,2.32,.13,4.14,.4,5.45,.26,1.32,.84,2.99,1.73,5.03h-15.95c-.64-1.26-1.06-2.23-1.26-2.9-.19-.66-.39-1.71-.58-3.13-2.23,2.38-4.44,4.08-6.64,5.1-3,1.36-6.5,2.04-10.48,2.04-5.29,0-9.3-1.36-12.04-4.08-2.74-2.72-4.11-6.08-4.11-10.07,0-3.74,.99-6.82,2.97-9.23,1.98-2.41,5.62-4.2,10.94-5.38,6.37-1.42,10.51-2.42,12.4-2.99,1.89-.57,3.9-1.33,6.01-2.25,0-2.31-.43-3.94-1.29-4.87-.86-.93-2.38-1.39-4.55-1.39-2.78,0-4.87,.49-6.26,1.48-1.08,.77-1.96,2.22-2.63,4.36"/>
  <rect class="cls-1" x="145.86" y="109.82" width="17.03" height="68"/>
  <path class="cls-1" d="M192.53,109.83v18.74h9.35v13.82h-9.35v17.45c0,2.1,.18,3.49,.54,4.17,.56,1.05,1.53,1.57,2.92,1.57,1.26,0,3.01-.4,5.26-1.2l1.25,13.03c-4.2,1.02-8.12,1.53-11.77,1.53-4.23,0-7.35-.6-9.35-1.8-2-1.21-3.49-3.03-4.45-5.49-.96-2.46-1.44-6.43-1.44-11.93v-17.33h-6.26v-13.82h6.26v-9.04l17.03-9.7Z"/>
  <rect class="cls-1" x="227.45" y="109.82" width="17.03" height="68"/>
  <path class="cls-1" d="M254.25,128.57h16.99v49.26h-16.99v-49.26Zm0-18.74h16.99v12.85h-16.99v-12.85Z"/>
  <path class="cls-1" d="M280.38,128.57h15.82v8.02c2.37-3.28,4.76-5.62,7.18-7.03,2.42-1.41,5.37-2.11,8.85-2.11,4.71,0,8.39,1.55,11.04,4.66,2.66,3.11,3.99,7.91,3.99,14.4v31.31h-17.08v-27.09c0-3.09-.51-5.28-1.55-6.56-1.03-1.28-2.48-1.93-4.34-1.93-2.06,0-3.73,.87-5.01,2.6s-1.92,4.84-1.92,9.32v23.66h-16.99v-49.26Z"/>
  <path class="cls-1" d="M382.41,177.83h-15.86v-7.98c-2.37,3.28-4.75,5.61-7.16,7-2.41,1.39-5.36,2.09-8.87,2.09-4.67,0-8.34-1.55-11-4.66-2.66-3.11-3.99-7.89-3.99-14.36v-31.36h17.07v27.09c0,3.09,.52,5.29,1.55,6.58,1.03,1.3,2.48,1.95,4.34,1.95,2.03,0,3.69-.86,4.99-2.59,1.29-1.73,1.94-4.84,1.94-9.32v-23.7h16.99v49.26Z"/>
  <polygon class="cls-1" points="387.22 128.57 407.38 128.57 414.41 142.29 422.62 128.57 441.36 128.57 426.24 152.04 442.45 177.83 422.62 177.83 414.41 161.96 404.79 177.83 386.38 177.83 402.48 152.04 387.22 128.57"/>
  <path class="cls-1" d="M485.41,109.83v18.74h9.35v13.82h-9.35v17.45c0,2.1,.18,3.49,.54,4.17,.56,1.05,1.53,1.57,2.92,1.57,1.25,0,3-.4,5.26-1.2l1.26,13.03c-4.2,1.02-8.13,1.53-11.78,1.53-4.23,0-7.35-.6-9.35-1.8-2-1.21-3.49-3.03-4.45-5.49-.96-2.46-1.44-6.43-1.44-11.93v-17.33h-6.26v-13.82h6.26v-9.04l17.03-9.7Z"/>
  <path class="cls-1" d="M533.09,148.83c-.33-3.64-1.22-6.26-2.65-7.83-1.43-1.58-3.32-2.37-5.65-2.37-2.7,0-4.86,1.19-6.47,3.57-1.04,1.48-1.69,3.7-1.96,6.63h16.74Zm17.28,9.05h-34.07c.31,3.03,1.04,5.29,2.21,6.77,1.64,2.13,3.79,3.2,6.43,3.2,1.67,0,3.26-.46,4.76-1.39,.92-.59,1.9-1.62,2.96-3.11l16.74,1.72c-2.56,4.95-5.65,8.5-9.27,10.64-3.62,2.15-8.81,3.22-15.57,3.22-5.87,0-10.49-.92-13.86-2.76-3.37-1.84-6.16-4.76-8.37-8.77-2.21-4-3.32-8.71-3.32-14.12,0-7.7,2.22-13.93,6.66-18.69,4.44-4.76,10.57-7.14,18.39-7.14,6.35,0,11.36,1.07,15.03,3.2,3.68,2.14,6.47,5.23,8.4,9.28,1.92,4.05,2.88,9.32,2.88,15.82v2.13Z"/>
  <path class="cls-1" d="M586.69,154.45c-2.34,.93-4.77,1.75-7.31,2.46-3.45,1.02-5.63,2.02-6.55,3.01-.95,1.02-1.42,2.18-1.42,3.48,0,1.48,.47,2.7,1.4,3.64,.94,.95,2.31,1.42,4.11,1.42s3.65-.51,5.28-1.53c1.63-1.02,2.78-2.26,3.46-3.73,.68-1.47,1.02-3.38,1.02-5.73v-3.02Zm-14.74-9.92l-16.24-1.9c.61-3.16,1.49-5.64,2.65-7.45,1.16-1.81,2.82-3.38,4.99-4.71,1.56-.96,3.7-1.7,6.43-2.23,2.72-.53,5.67-.79,8.84-.79,5.1,0,9.19,.32,12.28,.95,3.09,.63,5.66,1.96,7.72,3.97,1.45,1.39,2.59,3.36,3.42,5.91,.84,2.55,1.25,4.99,1.25,7.3v21.76c0,2.32,.13,4.14,.4,5.45,.27,1.32,.84,2.99,1.73,5.03h-15.95c-.64-1.26-1.06-2.23-1.25-2.9-.19-.66-.39-1.71-.59-3.13-2.22,2.38-4.44,4.08-6.63,5.1-3,1.36-6.5,2.04-10.48,2.04-5.29,0-9.3-1.36-12.04-4.08-2.74-2.72-4.11-6.08-4.11-10.07,0-3.74,.99-6.82,2.97-9.23,1.98-2.41,5.62-4.2,10.94-5.38,6.38-1.42,10.51-2.42,12.4-2.99,1.89-.57,3.89-1.33,6.01-2.25,0-2.31-.43-3.94-1.29-4.87-.86-.93-2.38-1.39-4.55-1.39-2.78,0-4.87,.49-6.26,1.48-1.09,.77-1.96,2.22-2.63,4.36"/>
  <path class="cls-1" d="M611.91,128.57h15.86v7.19c2.29-3,4.59-5.14,6.92-6.4,2.33-1.27,5.13-1.9,8.42-1.9,3.54,0,6.34,.7,8.4,2.09,2.06,1.39,3.75,3.46,5.06,6.22,2.67-3.22,5.1-5.4,7.29-6.57s4.9-1.74,8.13-1.74c4.75,0,8.46,1.57,11.13,4.71,2.67,3.14,4,8.05,4,14.72v30.94h-17.03v-28.06c0-2.23-.39-3.88-1.17-4.96-1.14-1.7-2.55-2.55-4.24-2.55-2,0-3.6,.8-4.83,2.41-1.22,1.61-1.83,4.19-1.83,7.74v25.42h-17.03v-27.13c0-2.17-.11-3.63-.33-4.41-.36-1.24-.99-2.24-1.89-2.99-.89-.76-1.94-1.14-3.14-1.14-1.96,0-3.56,.82-4.82,2.46s-1.88,4.33-1.88,8.07v25.14h-17.03v-49.26Z"/>
  <path class="cls-4" d="M131.05,182.85v7.24H767.93v-7.24m-60.75-91.44H131.05v31.7"/>
</svg>