<?xml version="1.0" encoding="UTF-8"?>
<svg id="Layer_1" data-name="Layer 1" xmlns="http://www.w3.org/2000/svg" viewBox="0 0 884.53 236.68">
  <defs>
    <style>
      .cls-1, .cls-2 {
        fill: #1d1d1b;
      }

      .cls-2 {
        fill-rule: evenodd;
      }
    </style>
  </defs>
  <path class="cls-1" d="M137.09,172.11c-.27-1.31-.4-3.13-.4-5.45v-21.75c0-2.32-.42-4.75-1.25-7.31-.83-2.55-1.98-4.52-3.42-5.91-2.06-2.01-4.63-3.33-7.72-3.97-3.09-.63-7.18-.95-12.27-.95-3.17,0-6.12,.26-8.85,.79-2.73,.53-4.87,1.27-6.43,2.23-2.17,1.33-3.83,2.9-4.99,4.71-1.16,1.81-2.04,4.29-2.65,7.45l16.24,1.9c.67-2.13,1.54-3.59,2.63-4.36,1.39-.99,3.48-1.49,6.26-1.49,2.17,0,3.69,.46,4.55,1.39,.86,.93,1.29,2.55,1.29,4.87-2.11,.93-4.12,1.68-6.01,2.25-1.89,.57-6.03,1.57-12.4,2.99-5.31,1.17-8.96,2.97-10.94,5.38-1.97,2.41-2.96,5.49-2.96,9.23,0,3.99,1.37,7.35,4.11,10.06,2.74,2.72,6.76,4.08,12.04,4.08,3.98,0,7.47-.68,10.48-2.04,2.2-1.02,4.41-2.72,6.64-5.1,.19,1.42,.39,2.47,.58,3.13,.19,.67,.61,1.63,1.25,2.9h15.94c-.89-2.04-1.47-3.72-1.73-5.03Zm-17.01-15.33c0,2.35-.34,4.26-1.02,5.73-.68,1.47-1.84,2.71-3.46,3.73-1.63,1.02-3.39,1.53-5.28,1.53-1.81,0-3.18-.47-4.11-1.41-.93-.94-1.4-2.16-1.4-3.64,0-1.3,.47-2.46,1.42-3.48,.92-.99,3.1-1.99,6.55-3.01,2.53-.71,4.97-1.53,7.3-2.46v3.02Z"/>
  <rect class="cls-1" x="145.75" y="109.14" width="17.03" height="67.99"/>
  <path class="cls-1" d="M176.83,170.96c.96,2.45,2.44,4.28,4.45,5.49,2,1.2,5.12,1.81,9.35,1.81,3.65,0,7.57-.51,11.77-1.53l-1.25-13.03c-2.25,.8-4.01,1.2-5.26,1.2-1.39,0-2.36-.53-2.92-1.57-.36-.68-.54-2.07-.54-4.17v-17.45s9.35,0,9.35,0v-13.82s-9.35,0-9.35,0v-18.74s-17.03,9.69-17.03,9.69v9.05s-6.26,0-6.26,0v13.82h6.26s0,17.33,0,17.33c0,5.5,.48,9.47,1.44,11.93Z"/>
  <rect class="cls-1" x="227.33" y="109.14" width="17.03" height="67.99"/>
  <rect class="cls-1" x="254.13" y="127.88" width="16.99" height="49.26"/>
  <rect class="cls-1" x="254.13" y="109.14" width="16.99" height="12.85"/>
  <path class="cls-1" d="M327.14,177.14v-31.31c0-6.49-1.33-11.29-3.99-14.4-2.66-3.11-6.34-4.66-11.04-4.66-3.48,0-6.43,.7-8.85,2.11-2.42,1.41-4.82,3.75-7.18,7.03v-8.02s-15.82,0-15.82,0v49.26s16.99,0,16.99,0v-23.65c0-4.48,.64-7.59,1.92-9.32,1.28-1.73,2.95-2.6,5.01-2.6,1.86,0,3.31,.64,4.34,1.93,1.03,1.28,1.54,3.47,1.54,6.56v27.09s17.07,0,17.07,0Z"/>
  <path class="cls-1" d="M382.28,177.14v-49.26s-16.99,0-16.99,0v23.7c0,4.48-.65,7.59-1.94,9.32-1.3,1.73-2.96,2.59-4.99,2.59-1.86,0-3.31-.65-4.34-1.95-1.03-1.3-1.54-3.49-1.54-6.58v-27.09s-17.07,0-17.07,0v31.35c0,6.46,1.33,11.25,3.99,14.36,2.66,3.11,6.32,4.66,11,4.66,3.51,0,6.46-.7,8.87-2.09,2.41-1.39,4.79-3.72,7.16-7v7.98s15.86,0,15.86,0Z"/>
  <polygon class="cls-1" points="404.65 177.14 414.28 161.28 422.48 177.14 442.31 177.14 426.1 151.35 441.22 127.88 422.48 127.88 414.28 141.61 407.24 127.88 387.08 127.88 402.35 151.35 386.25 177.14 404.65 177.14"/>
  <path class="cls-1" d="M469.68,170.96c.96,2.45,2.44,4.28,4.44,5.49,2,1.2,5.12,1.81,9.35,1.81,3.65,0,7.57-.51,11.77-1.53l-1.25-13.03c-2.25,.8-4.01,1.2-5.26,1.2-1.39,0-2.37-.53-2.92-1.57-.36-.68-.54-2.07-.54-4.17v-17.45s9.35,0,9.35,0v-13.82s-9.35,0-9.35,0v-18.74s-17.03,9.69-17.03,9.69v9.05s-6.26,0-6.26,0v13.82h6.26s0,17.33,0,17.33c0,5.5,.48,9.47,1.44,11.93Z"/>
  <path class="cls-1" d="M550.22,155.06c0-6.49-.96-11.76-2.88-15.81-1.92-4.05-4.72-7.14-8.39-9.28-3.67-2.13-8.68-3.2-15.03-3.2-7.82,0-13.95,2.38-18.39,7.14-4.44,4.76-6.66,10.99-6.66,18.69,0,5.41,1.11,10.12,3.32,14.12,2.21,4,5,6.93,8.37,8.76,3.37,1.84,7.99,2.76,13.86,2.76,6.76,0,11.95-1.08,15.57-3.22,3.62-2.15,6.71-5.7,9.27-10.64l-16.74-1.72c-1.06,1.49-2.05,2.52-2.96,3.11-1.5,.93-3.09,1.39-4.76,1.39-2.64,0-4.79-1.07-6.43-3.2-1.17-1.49-1.91-3.74-2.21-6.77h34.06v-2.13Zm-34.02-6.91c.28-2.94,.93-5.15,1.96-6.63,1.61-2.38,3.77-3.57,6.47-3.57,2.34,0,4.22,.79,5.66,2.37,1.43,1.58,2.32,4.19,2.65,7.84h-16.74Z"/>
  <path class="cls-1" d="M568.13,149.5c-5.32,1.17-8.96,2.97-10.94,5.38-1.98,2.41-2.96,5.49-2.96,9.23,0,3.99,1.37,7.35,4.11,10.06,2.74,2.72,6.75,4.08,12.04,4.08,3.98,0,7.47-.68,10.48-2.04,2.2-1.02,4.41-2.72,6.64-5.1,.19,1.42,.39,2.47,.58,3.13,.19,.67,.61,1.63,1.25,2.9h15.95c-.89-2.04-1.47-3.72-1.73-5.03-.26-1.31-.4-3.13-.4-5.45v-21.75c0-2.32-.42-4.75-1.25-7.31-.84-2.55-1.98-4.52-3.42-5.91-2.06-2.01-4.63-3.33-7.72-3.97-3.09-.63-7.18-.95-12.27-.95-3.17,0-6.12,.26-8.85,.79-2.73,.53-4.87,1.27-6.43,2.23-2.17,1.33-3.83,2.9-4.99,4.71-1.16,1.81-2.04,4.29-2.65,7.45l16.24,1.9c.67-2.13,1.55-3.59,2.63-4.36,1.39-.99,3.48-1.49,6.26-1.49,2.17,0,3.69,.46,4.55,1.39,.86,.93,1.29,2.55,1.29,4.87-2.11,.93-4.12,1.68-6.01,2.25-1.89,.57-6.03,1.57-12.4,2.99Zm18.41,7.28c0,2.35-.34,4.26-1.02,5.73-.68,1.47-1.84,2.71-3.46,3.73-1.63,1.02-3.39,1.53-5.28,1.53s-3.18-.47-4.11-1.41c-.93-.94-1.4-2.16-1.4-3.64,0-1.3,.47-2.46,1.42-3.48,.92-.99,3.1-1.99,6.55-3.01,2.53-.71,4.97-1.53,7.31-2.46v3.02Z"/>
  <path class="cls-1" d="M686.97,177.14v-30.94c0-6.68-1.33-11.59-4-14.72-2.67-3.14-6.38-4.71-11.13-4.71-3.23,0-5.93,.58-8.13,1.74-2.2,1.16-4.63,3.35-7.29,6.56-1.31-2.75-3-4.82-5.06-6.21-2.06-1.39-4.86-2.09-8.4-2.09-3.29,0-6.1,.63-8.42,1.9-2.33,1.27-4.63,3.4-6.92,6.4v-7.19s-15.86,0-15.86,0v49.26s17.03,0,17.03,0v-25.14c0-3.74,.63-6.43,1.88-8.07,1.26-1.64,2.86-2.46,4.82-2.46,1.2,0,2.25,.38,3.14,1.14,.89,.76,1.52,1.75,1.89,2.99,.22,.77,.33,2.24,.33,4.41v27.13s17.03,0,17.03,0v-25.42c0-3.56,.61-6.14,1.83-7.74,1.22-1.61,2.83-2.41,4.83-2.41,1.69,0,3.11,.85,4.24,2.55,.78,1.08,1.17,2.74,1.17,4.96v28.06s17.03,0,17.03,0Z"/>
  <polygon class="cls-1" points="132.19 91.99 707.01 91.99 707.01 89.47 129.67 89.47 129.67 122.43 132.19 122.43 132.19 91.99"/>
  <polygon class="cls-1" points="766.49 188.15 132.19 188.15 132.19 182.16 129.67 182.16 129.67 190.67 769.01 190.67 769.01 182.16 766.49 182.16 766.49 188.15"/>
  <path class="cls-2" d="M794.4,174.5c-2.32-2.2-8.43-5.04-9.4-8.66-1.99-5.27,.51-12.24,1.25-18.08,2.55-17.28,1.52-26.8-1.59-41.08-1.7-8.21-2.95-15.12-5.56-22.37-.68-1.87-1.98-3.74-2.77-5.6-.74-1.08-1.09-2.66-1.42-4.02-.85-3.97-.35-7.76-1.53-11.39-.69-2.21-2.79-5.16-4.7-6.52-1.7-1.18-4.26-1.35-5.9-2.37-3.8-2.04-7.7-4.03-11.73-6.57-.51-.34-2.1-.85-2.96-.34,4.43,3.12,7.32,6.91,8.56,12.29,.56,2.84,1.32,4.88-1.25,6.12-.74,.51-5.61,3.57-7.59,8.9-.78,1.37-3.84,8.44-7.41,15.3-8.16-3.79-14.79-4.02-20.63-.96-12.18,5.83-16.54,19.88-17.05,33.93-.51,13.54,5.38,29.8,3.8,42.59-.73,4.82-3.29,8.34-9.41,9.7-.73,0-1.25,.22-1.02,.73h30.76c1.59,0,1.82-1.01,3.4-2.32,1.81-1.75,0-4.08,0-8.44,0-6.4,2.48-12.69,4.53-18.64,2.25-6.51,4.25-13.03,5.61-19.77,.72,3,1.47,7.02,2.49,10.87,.96,3.63,2.15,7.09,3.91,9.41-.74,.29-1.42,.74-2.1,1.02-1.36,.51-2.77,1.13-3.96,1.59-.29,.11-.29,.34-.23,.51,.07,.16,.23,.28,.4,.34,.45,.23,.91,.46,1.07,.74,1.08,1.25,1.59,1.98,1.59,3.45,0,1.82-.9,2.44-.57,4.03,.51,2.72,3.12,5.72,3.12,8.77-.34,2.56-2.32,2.56-3.63,4.14-.28,.52-.52,.97-.52,1.82,0,.74-.33,1.98,.52,1.98,.96,.23,1.31-1.58,2.05-1.58,1.24,.34,1.24,2.09,2.31,2.09h48.61c-.34-.51-.57-1.25-1.08-1.59Zm-44.07-126.23c3.79,1.77,7.65,5.39,10.7,10.03,.5,.96-.74,2.2-1.81,.74-1.99-3.07-5.89-9.01-8.89-10.77Zm5.6,124.02c-.85-1.02-2.6-1.02-3.9-.85-.75,0-.97,1.09-2,1.3-.22,0-1.07,.12-1.3-.45-.17-.85-.91-1.14-1.02-1.87-.35-1.42,.06-3.23-.45-4.94-.28-.96-1.2-2.42-1.93-3.96-.78-1.58-1.35-3.22-.9-4.3,.39-1.42,.84-3.01-.12-4.36-.22-.34,1.19,.23,1.88,0,.45-.17,.33-.68,.33-1.07-.91-.11-1.25-.97-1.19-1.59,.12-1.13,1.76-1.36,2.67-1.36,1.3,.06,2.44,.63,2.77,1.7,.28,.91,.16,1.93-.28,2.84-1.41,2.78-2.61,1.47-4.64,1.98-.68,.11-.74,.51-.12,.8,.79,.33,1.82,.28,2.84,.28,.97,0,2.27-.62,2.27,1.19,0,3.17,1.35,8.22,3.06,11.05,1.02,1.71,2.77,2.72,2.77,3.35,0,.28-.28,.28-.73,.28Zm14.67-.45c-3.34,1.93-6.34,2.38-10.7,2.38,.8-3.7-.28-6.58-1.53-9.07-.91-1.98-2.44-4.03-3.8-6.34-1.3-2.49-.62-4.99-.97-7.42-.33-2.49-2.43-4.82-4.93-4.59-2.54-2.73-3.51-6.74-4.41-10.25-1.25-4.87-2.49-10.47-3.46-14.22-.06-.22-.18-.51-.39-.58-.29-.1-.64,.07-.69,.4-1.47,8.16-3.56,15.07-5.78,21.7-2.32,7.2-6.23,16.49-5.14,24.43,.22,1.29,1,2.88-.23,4.36-1.25,1.26-1.09,1.48-2.33,1.48-4.37,.16-9.18,0-13.21-.06-.84-.12,3.29-2.15,3.41-5.95,0-4.03-1.81-8.78-3.86-15.24-1.98-6.58-2.72-15.3-1.76-20.17,0-.45,.57-.74,.74,0,.56,3.05-.74,10.26,1.02,13.82,.34,.74,2.16,.22,2.55-.5,3.52-3.96,5.21-12.64,5.72-17.68,.73-6.85-1.81-14.79,0-20.9,1.19-4.2,4.02-7.99,8.44-9.75,1.73-.69,3.56-.94,5.28-.74,0,0,0,0,0,0,2.54-.16,6.9,2.9,8.15,4.87,.51,1.07,1.26,1.59,1.82,1.3,0,0,.16-.45,0-1.3,0-3.29,3.79-3.06,5.48-1.47,1.59,1.24,2.95,5.49,2.1,7.59-.35,.96-1.2,1.47-2.67,1.07-2.43-.5-2.1-1.82-3.68-1.82-1.74,.12-2.49,1.7-2.6,2.43-.13,.64-.8,2.12-1.22,1.82,0,.04,.01,.08,.02,.12,.35,1.24,.8,2.37,1.7,3.73,2.51,3.63,4.42,6.4,5.62,10.83,.73,2.03,.5,4.87,0,6.11-.58,.73,.5,1.31,1.25,.73,.73-1.59,.73-2.83,1.24-4.29,.75-1.82,1.08-4.37,1.54-5.96,1.02-2.49,2.83-4.81,3.34-7.59,1.47-6.34-1.13-13.08-5.89-17.34-2.89-2.6-5.72-4.93-9-6.96,2.37-4.94,4.81-9.29,6.9-14.34,1.45-3.7,3.47-6.38,6.3-8.18-.14-.37,.89-1,1.74-1.39,1.87-.86,1.87,0,3.24,.95,1.64,1.13,3.56,1.93,5.38,.85,1.31-1.02,1.08-3.34,2.67-3.9,2.66-1.02,4.25,1.98,4.75,4.41,.63,2.94-1.81,5.78-4.99,4.08-1.07-.68-1.31-1.41-2.1-1.99-1.7-1.13-3.62-.44-3.86,2.16-.15,1.82-.44,3.87-.49,4.94,.16,2.97,.25,6.52,.15,9.17-.16,3.96,.91,10.59,.34,12.92-1.01,7.42-3.83,15.35-3.83,22.77-.24,7.19,1.01,17.1,7.12,21.98,.75,.51,2.27-.57,2.27-1.58,.68-2.67,.46-5.5,.35-8.39-.24-4.82,.45-9.63,2.09-14.23,1.01-2.82,2.2-5.43,3.97-8.26,.44-.74,1.29-.23,.96,.51-.22,0-3.29,6.18-4.59,11.5-1.59,5.66-2.27,14.33,1.13,19.15,1.81,3.06,3.24,4.76,4.54,7.65,4.13,8.96,1.08,16.49-5.22,20.23Zm-21.64-52.18c-.4-1.25,1.37-1.76,1.59-.17,1.24,5.04,1.07,8.83-.74,12.74,1.25-3.34,0-8.66-.85-12.57Z"/>
</svg>