<?xml version="1.0" encoding="UTF-8"?>
<svg id="Layer_1" data-name="Layer 1" xmlns="http://www.w3.org/2000/svg" viewBox="0 0 221.13 215.81">
  <defs>
    <style>
      .cls-1, .cls-2 {
        fill: #fff;
      }

      .cls-3 {
        fill: #fc0;
      }

      .cls-4, .cls-5 {
        fill: #1d1d1b;
      }

      .cls-5, .cls-6, .cls-2 {
        fill-rule: evenodd;
      }

      .cls-6 {
        fill: #ef7d00;
      }
    </style>
  </defs>
  <g>
    <g>
      <g>
        <rect class="cls-1" x="54.88" y="64.36" width="109.53" height="102.63" rx=".57" ry=".57"/>
        <path class="cls-1" d="M54.45,167.98c-.31,0-.57-.25-.57-.57V63.92c0-.31,.25-.57,.57-.57h110.39c.31,0,.57,.25,.57,.57v103.49c0,.31-.25,.57-.57,.57H54.45Zm108.82-2.13V65.49H56.02v100.36h107.26Z"/>
      </g>
      <g>
        <g>
          <path class="cls-1" d="M146.81,125.64c-.75,0-1.1-.59-1.36-1.01-.17-.29-.31-.5-.48-.6-.03,.07-.13,.21-.2,.31-.27,.39-.64,.92-1.28,.92h0c-.07,0-.13,0-.2-.02-.33-.02-.54-.17-.66-.3-.36-.39-.31-.96-.27-1.47,.01-.13,.02-.26,.02-.37,0-.83,.25-1.3,.48-1.71,.02-.03,.04-.06,.06-.09,.42-.51,.92-.84,1.35-1.12,.73-.48,1.25-.82,1.39-1.86,0-1.17-.65-2.49-1.28-3.75-.51-1.03-.99-2.01-1.18-3-.17-.82,0-1.38,.18-1.93,.13-.41,.25-.79,.25-1.36,0-.98-.31-1.42-1.12-2.36-.12-.16-.46-.34-.66-.44-.24-.07-.49-.29-.6-.57-.17-.52,.04-.96,.5-1.14,.42-.16,.87-.35,1.34-.54,.59-.24,1.2-.5,1.8-.72,.21-.09,.44-.21,.68-.34,.11-.06,.22-.12,.33-.17-1.37-2.1-2.24-5-2.78-7.06-.49-1.86-.91-3.8-1.28-5.52-.04-.2-.09-.4-.13-.6-.92,3.94-2.16,8.12-3.91,13.19l-.56,1.6c-1.47,4.21-2.99,8.56-2.99,12.95,0,1.28,.2,2.32,.38,3.24,.29,1.49,.54,2.78-.55,3.85-.4,.34-.68,.62-.92,.88-.57,.6-1.06,1.12-2.16,1.12h-24.32c-.22,0-.43-.13-.52-.34-.18-.41-.05-.72,.05-.87,.21-.33,.62-.5,1.21-.51,4.13-.93,6.33-3.22,6.94-7.19,.66-5.33-.38-11.64-1.39-17.73-.89-5.34-1.8-10.87-1.61-15.88,.35-9.61,3.03-22.16,13.8-27.32,2.21-1.16,4.5-1.72,7.01-1.72,2.85,0,5.9,.74,9.29,2.25,1.64-3.18,3.1-6.32,4.19-8.65,.69-1.48,1.19-2.56,1.44-2.99,.67-1.81,2.3-4.6,6.05-7.14l.12-.08c1.44-.71,1.32-1.55,.89-3.57l-.14-.69c-.9-3.88-2.98-6.86-6.54-9.36-.16-.11-.25-.29-.24-.49s.11-.37,.28-.47c.28-.16,.62-.25,1.03-.25,.73,0,1.53,.28,1.92,.54,2.53,1.6,5.04,2.93,7.46,4.22l1.76,.94c.58,.36,1.3,.57,2.06,.8,.92,.28,1.87,.56,2.66,1.11,1.59,1.14,3.35,3.58,3.94,5.45,.54,1.66,.65,3.39,.76,5.06,.08,1.3,.17,2.65,.46,4l.04,.19c.23,.97,.5,2.08,.99,2.79,.02,.03,.04,.07,.05,.1,.27,.64,.63,1.3,.99,1.95,.45,.81,.91,1.66,1.22,2.51,1.81,5.02,2.78,9.78,3.91,15.28l.51,2.48c2.5,11.52,3.28,18.97,1.26,32.68-.16,1.25-.41,2.54-.68,3.9-.7,3.55-1.42,7.21-.33,10.11,.49,1.82,2.9,3.47,4.83,4.79,.95,.65,1.85,1.26,2.45,1.84,.32,.2,.54,.61,.72,.98,.07,.13,.14,.26,.21,.38,.12,.17,.13,.4,.03,.58s-.29,.3-.5,.3h-38.43Z"/>
          <path class="cls-1" d="M146.81,126.64c-.92,0-1.5-.5-1.86-.96-.35,.32-.82,.58-1.45,.58-.12,0-.23,0-.35-.03-.45-.03-.91-.25-1.25-.61-.65-.71-.58-1.62-.53-2.23,.01-.13,.02-.21,.02-.28,0-1.08,.35-1.72,.6-2.18,.02-.03,.08-.15,.11-.17,0,0,.06-.08,.06-.08,.52-.62,1.1-1.01,1.57-1.32,.67-.44,.85-.57,.94-1.06-.04-1-.61-2.16-1.17-3.28-.52-1.05-1.06-2.13-1.26-3.24-.23-1.08,.01-1.84,.21-2.44,.12-.38,.21-.64,.21-1.05,0-.57-.08-.78-.88-1.71,0,0-.01-.01-.02-.02-.08-.05-.2-.11-.3-.16-.48-.19-.91-.59-1.11-1.1,0-.02-.04-.11-.04-.12-.31-.98,.16-1.96,1.12-2.33,.38-.15,.79-.31,1.21-.49l.11-.05c.6-.25,1.21-.5,1.77-.71-.86-1.58-1.61-3.63-2.34-6.4-.18-.69-.35-1.38-.51-2.05-.77,2.78-1.71,5.76-2.9,9.2l-.56,1.61c-1.44,4.12-2.94,8.39-2.94,12.62,0,1.18,.19,2.16,.36,3.04,.32,1.64,.65,3.32-.84,4.77,0,0-.08,.07-.09,.08-.33,.27-.57,.52-.8,.77-.61,.64-1.36,1.43-2.89,1.43h-24.97c-.22,0-.43-.13-.52-.34l-.26-.59c-.27-.62-.23-1.28,.12-1.82,.27-.41,.82-.91,1.92-.96,3.72-.86,5.54-2.75,6.08-6.31,.64-5.19-.39-11.42-1.39-17.45-.89-5.39-1.82-10.96-1.63-16.08,.65-17.92,8.16-25.21,14.34-28.17,2.35-1.23,4.8-1.84,7.47-1.84s5.64,.64,8.82,1.97c1.47-2.9,2.78-5.71,3.75-7.78,.7-1.5,1.15-2.48,1.43-2.98,.73-1.94,2.47-4.89,6.41-7.55,0,0,.22-.15,.24-.16,.68-.33,.79-.38,.35-2.46-.05-.23-.1-.46-.14-.67-.84-3.62-2.79-6.41-6.14-8.77l-1.27-.89c-.16-.11-.25-.29-.24-.49s.11-.37,.28-.47l1.34-.79c.44-.25,.95-.38,1.53-.38,.94,0,1.95,.35,2.45,.69,2.5,1.58,4.98,2.9,7.39,4.18l1.77,.95s.08,.04,.09,.05c.43,.27,1.08,.46,1.78,.67,.95,.29,2.03,.61,2.96,1.25,1.77,1.27,3.66,3.88,4.31,5.96,.58,1.79,.7,3.58,.81,5.31,.08,1.28,.17,2.58,.43,3.82l.05,.19c.21,.89,.46,1.89,.84,2.46,0,0,.06,.08,.06,.08,.02,.03,.04,.06,.05,.1l.04,.09c.25,.59,.59,1.21,.94,1.85,.46,.85,.95,1.72,1.28,2.65,1.84,5.09,2.81,9.88,3.94,15.41l.51,2.48c2.53,11.64,3.32,19.17,1.27,33.02-.17,1.3-.45,2.72-.69,3.97-.67,3.41-1.37,6.93-.38,9.56,0,.02,.03,.08,.04,.1,.39,1.45,2.72,3.05,4.43,4.22,.96,.66,1.86,1.27,2.52,1.88,.49,.36,.78,.9,.98,1.29,.06,.12,.1,.21,.16,.28l1.05,1.56c.12,.17,.13,.4,.03,.58-.1,.18-.29,.3-.5,.3h-40.31Zm-1.83-3.79c.05,0,.1,0,.15,.02,.7,.19,1.04,.76,1.29,1.17,.2,.33,.29,.46,.39,.46h37.46c-.06-.09-.13-.17-.2-.22-.62-.58-1.48-1.17-2.39-1.79-2.2-1.51-4.69-3.21-5.27-5.38-1.19-3.14-.43-6.97,.3-10.67,.27-1.34,.52-2.61,.67-3.83,2-13.54,1.23-20.9-1.25-32.29l-.51-2.49c-1.12-5.46-2.08-10.18-3.86-15.12-.28-.77-.72-1.57-1.14-2.35-.36-.65-.73-1.32-1.01-2-.58-.88-.87-2.07-1.12-3.12l-.05-.2c-.31-1.44-.4-2.83-.49-4.17-.11-1.67-.21-3.26-.71-4.79-.51-1.65-2.12-3.88-3.51-4.87-.63-.44-1.49-.7-2.33-.95-.8-.24-1.63-.49-2.3-.91l-1.73-.92c-2.44-1.3-4.97-2.64-7.55-4.28-.07-.05-.18-.1-.32-.15,2.96,2.45,4.76,5.35,5.6,8.99l.14,.7c.4,1.91,.78,3.71-1.43,4.78l-.06,.05c-3.51,2.37-5.01,4.94-5.66,6.68-.26,.48-.78,1.58-1.43,2.99-1.08,2.31-2.7,5.81-4.46,9.17-.1,.19-.3,.31-.5,.31-.08,0-.16-.02-.24-.05-3.44-1.6-6.48-2.37-9.3-2.37-2.32,0-4.45,.52-6.5,1.6-10.28,4.92-12.84,17.04-13.18,26.35-.18,4.9,.72,10.37,1.6,15.65,1.02,6.17,2.08,12.56,1.4,18.07-.58,3.83-2.56,6.33-6.02,7.61h21.54c.62,0,.83-.22,1.34-.76,.25-.26,.56-.59,.99-.94,.6-.58,.49-1.27,.2-2.78-.18-.92-.4-2.06-.4-3.45,0-4.59,1.55-9.03,3.06-13.33l.55-1.59c2.12-6.11,3.48-10.91,4.42-15.56,.05-.26,.28-.45,.54-.45,0,0,0,0,.01,0,.26,0,.49,.18,.55,.43,.23,.93,.45,1.99,.7,3.12,.37,1.7,.78,3.62,1.26,5.46,.57,2.17,1.51,5.27,2.99,7.24,.11,.14,.14,.33,.09,.5-.05,.17-.17,.31-.34,.37-.29,.11-.58,.26-.85,.41-.27,.14-.53,.28-.79,.39-.61,.23-1.22,.48-1.8,.72-.29,.12-.57,.23-.84,.34,.32,.18,.6,.36,.76,.63,.81,.92,1.34,1.63,1.34,3.02,0,.74-.17,1.25-.31,1.7-.15,.48-.26,.82-.15,1.36,.16,.85,.61,1.76,1.09,2.72,.68,1.38,1.39,2.81,1.39,4.33-.21,1.63-1.11,2.22-1.9,2.73-.39,.26-.76,.5-1.07,.86-.18,.34-.31,.6-.31,1.12,0,.14-.01,.3-.03,.46-.01,.15-.03,.41-.02,.55,0,0,.01,0,.02,0,.07-.03,.25-.29,.35-.43,.26-.37,.58-.83,1.14-.83Z"/>
        </g>
        <g>
          <path class="cls-1" d="M157.12,124.17c-.17,0-.33-.08-.44-.21-.11-.13-.15-.31-.11-.48,.59-2.75-.21-4.89-1.16-6.8-.44-.96-1.08-1.95-1.75-3-.41-.64-.83-1.3-1.24-1.99-.76-1.45-.75-2.83-.75-4.17,0-.66,0-1.29-.09-1.9-.2-1.52-1.43-3.15-3.06-3.15-.07,0-.15,0-.22,.01-.02,0-.04,0-.05,0-.16,0-.31-.07-.42-.18-2.04-2.19-2.84-5.31-3.55-8.06l-.07-.29c-.52-2.01-1.03-4.18-1.51-6.22-.39-1.64-.76-3.2-1.09-4.52-1.2,6.41-2.85,11.74-4.47,16.55-.3,.92-.63,1.9-.97,2.91-1.77,5.17-3.77,11.03-3.07,16.15,.03,.17,.08,.37,.13,.57,.22,.91,.53,2.16-.44,3.32-.25,.25-.41,.43-.54,.58-.54,.59-.77,.8-1.73,.8-1.08,.04-2.21,.06-3.35,.06-1.66,0-3.33-.03-4.92-.06-.75-.01-1.48-.03-2.19-.04-.34-.04-.54-.21-.62-.44-.13-.42,.16-.7,.62-1.12,.73-.68,2.09-1.95,2.14-3.72,0-2.53-.98-5.53-2.21-9.34-.26-.8-.53-1.64-.81-2.52-1.58-5.24-2.19-12.18-1.42-16.18,.03-.48,.4-.86,.85-.86,.32,0,.71,.21,.85,.79,.18,.98,.14,2.33,.1,3.88-.07,2.46-.15,5.25,.65,6.9,0,0,.01,0,.03,0,.02,0,.04,0,.07,0,.38,0,.84-.24,.92-.39,.02-.04,.05-.07,.08-.11,2.51-2.83,3.93-9.12,4.38-13.66,.24-2.29,.01-4.78-.21-7.2-.3-3.23-.61-6.58,.23-9.43,1.08-3.79,3.63-6.73,7.01-8.07,1.12-.45,2.33-.69,3.47-.69,3.56,0,6.15,2.1,6.92,5.62,.32,1.21,.28,2.54,.25,3.73-.03,1.02-.06,1.98,.15,2.69,.3,1.07,.67,1.88,1.27,2.8,1.97,2.85,3.54,5.11,4.52,8.73,.63,1.74,.4,4.11,0,5.16,0,0,0,0,0,0,.26-.61,.38-1.16,.51-1.74,.1-.46,.2-.93,.38-1.44,.37-.9,.61-2.03,.82-3.03,.13-.61,.25-1.18,.39-1.65,.32-.8,.71-1.53,1.09-2.23,.64-1.18,1.29-2.41,1.53-3.71,1.08-4.62-.68-9.79-4.48-13.18-1.91-1.72-4.24-3.71-7.04-5.45-.25-.15-.34-.47-.21-.73,.64-1.34,1.29-2.62,1.93-3.89,1.25-2.47,2.43-4.81,3.51-7.41,1.43-3.65,3.5-6.03,6.51-7.46,.08-.04,.16-.06,.24-.06,.14,0,.28,.05,.38,.15,.64,.59,1.17,1.03,1.59,1.38,1.97,1.64,2.08,1.93,2.26,6.09,.17,2.38,.32,6.2,.22,8.91-.06,1.34,.08,3.11,.2,4.81,.17,2.26,.33,4.39,.05,5.51-.3,2.23-.83,4.61-1.35,6.92-.82,3.64-1.66,7.41-1.66,10.95-.12,3.71,.16,12.74,5.42,16.93,.35-.02,.87-.5,.87-.81,0-.05,0-.09,.02-.14,.46-1.78,.37-3.67,.29-5.67l-.03-.8c-.19-3.93,.37-7.79,1.69-11.46,.9-2.5,1.88-4.55,3.2-6.64,.21-.35,.54-.55,.91-.55,.32,0,.62,.16,.8,.44,.2,.3,.22,.69,.05,1.05-.04,.08-.08,.14-.15,.2-.37,.54-2.49,4.88-3.45,8.8-1.35,4.83-1.62,11.23,.8,14.68,.53,.9,1,1.62,1.44,2.3,.82,1.25,1.52,2.34,2.2,3.84,3.11,6.73,1.4,13.29-4.35,16.71-2.85,1.64-5.36,1.96-8.75,1.96Z"/>
          <path class="cls-1" d="M155.88,125.17c-.17,0-.33-.08-.44-.21-.11-.13-.15-.31-.11-.48l.26-1.21c.5-2.31-.08-4.13-1.09-6.17-.42-.9-1.03-1.86-1.68-2.87-.45-.69-.86-1.34-1.26-2.02-.89-1.71-.89-3.28-.89-4.67,0-.63,0-1.22-.08-1.78-.15-1.08-1.03-2.29-2.07-2.29-.04,0-.09,0-.13,0,0,0-.52,.05-.53,.05-.16,0-.31-.07-.42-.18l-.33-.36c-2.21-2.37-3.05-5.62-3.78-8.49l-.08-.3c-.5-1.97-1-4.05-1.48-6.08,0,0-.07-.3-.09-.37-1.08,4.64-2.35,8.65-3.58,12.32-.3,.93-.63,1.91-.98,2.92-1.73,5.06-3.69,10.81-3.03,15.66,.02,.14,.07,.3,.11,.47,.25,1.02,.66,2.68-.63,4.22-.01,.01-.08,.09-.09,.1-.2,.2-.35,.37-.48,.51-.72,.79-1.22,1.12-2.43,1.12-1.01,.04-2.12,.06-3.38,.06-1.68,0-3.35-.03-4.96-.06-.74-.01-1.46-.03-2.16-.04-.02,0-.11,0-.13,0-.71-.1-1.23-.53-1.42-1.14-.33-1.03,.4-1.71,.89-2.16,.71-.66,1.78-1.67,1.82-2.99,0-2.37-.95-5.31-2.16-9.03-.26-.81-.54-1.65-.82-2.55-1.61-5.35-2.23-12.5-1.45-16.63,.08-.93,.89-1.7,1.84-1.7,.72,0,1.57,.48,1.83,1.56,.21,1.14,.17,2.53,.13,4.14-.05,1.77-.11,3.91,.23,5.44,2.21-2.77,3.48-8.58,3.91-12.83,.23-2.18,0-4.62-.21-6.98-.31-3.35-.63-6.79,.26-9.82,1.16-4.09,3.93-7.27,7.6-8.73,1.24-.5,2.57-.76,3.84-.76,4,0,7.03,2.44,7.89,6.36,.36,1.34,.32,2.76,.28,4.01-.03,.95-.06,1.83,.11,2.4,.27,.96,.6,1.69,1.13,2.5,1.86,2.69,3.37,4.86,4.4,8.13,0-.03,.01-.07,.02-.1,.14-.67,.26-1.23,.4-1.71,0-.02,.03-.09,.04-.11,.34-.84,.74-1.59,1.13-2.31,.63-1.18,1.23-2.28,1.45-3.48,.99-4.27-.65-9.06-4.17-12.21-1.88-1.69-4.17-3.64-6.9-5.34l-.76-.47c-.25-.15-.34-.47-.21-.73l.39-.81c.64-1.34,1.29-2.63,1.93-3.88,1.26-2.49,2.43-4.81,3.49-7.36,1.5-3.85,3.8-6.47,7.01-8l.61-.29c.08-.04,.16-.06,.24-.06,.14,0,.28,.05,.38,.15l.5,.46c.61,.56,1.12,.98,1.53,1.33,2.31,1.92,2.46,2.57,2.65,6.81,.18,2.42,.32,6.28,.22,9.03-.05,1.3,.08,3.03,.2,4.7,.18,2.4,.33,4.48,.04,5.76-.31,2.26-.84,4.65-1.36,6.95-.81,3.61-1.64,7.32-1.64,10.78-.11,3.37,.11,11.4,4.38,15.54,.37-1.6,.3-3.36,.22-5.22l-.03-.79c-.2-4.07,.39-8.05,1.74-11.85,.92-2.57,1.94-4.67,3.28-6.82,.39-.65,1.05-1.04,1.76-1.04,.66,0,1.28,.33,1.64,.9,.38,.58,.42,1.33,.12,2l-.27,.59c-.05,.11-.14,.21-.24,.26-.75,1.45-2.29,4.93-3.04,8-1.29,4.6-1.58,10.65,.66,13.83,0,.01,.06,.09,.07,.1,.5,.84,.95,1.54,1.39,2.21,.81,1.25,1.57,2.41,2.27,3.98,3.34,7.23,1.47,14.29-4.76,18-3.04,1.75-5.69,2.1-9.25,2.1h-1.24Zm-7.36-23.83c2.27,0,3.91,2.1,4.18,4.13,.1,.69,.1,1.39,.1,2.06,0,1.26,0,2.44,.61,3.62,.38,.65,.8,1.3,1.2,1.92,.69,1.08,1.35,2.1,1.82,3.12,.91,1.83,1.78,4.06,1.37,6.84,2.86-.04,5.06-.4,7.49-1.8,5.21-3.1,6.74-9.09,3.89-15.27-.64-1.43-1.33-2.48-2.12-3.69-.45-.69-.93-1.42-1.44-2.3-.81-1.16-1.35-2.61-1.66-4.22,0,1.28-.07,2.56-.37,3.79-.06,.98-1.14,1.84-2,1.84-.25,0-.48-.07-.68-.2-5.7-4.54-6.01-14.01-5.88-17.87,0-3.65,.86-7.48,1.69-11.18,.51-2.28,1.04-4.64,1.34-6.88,.24-1,.08-3.15-.07-5.22-.13-1.74-.26-3.53-.2-4.94,.1-2.66-.05-6.43-.22-8.8q-.17-3.88-1.85-5.29c-.37-.31-.81-.68-1.34-1.15-2.55,1.32-4.34,3.45-5.61,6.69-1.1,2.66-2.29,5.01-3.55,7.5-.57,1.12-1.14,2.25-1.71,3.42,2.68,1.72,4.92,3.63,6.77,5.29,4.09,3.67,5.99,9.26,4.83,14.26-.27,1.46-.97,2.76-1.64,4.02-.38,.71-.74,1.38-1.02,2.07-.11,.39-.22,.93-.35,1.51-.22,1.05-.47,2.23-.87,3.2-.14,.41-.23,.83-.33,1.28-.14,.66-.29,1.35-.66,2.14-.04,.08-.1,.16-.17,.21-.26,.2-.56,.3-.88,.3-.46,0-.88-.24-1.06-.6-.16-.32-.12-.68,.1-1,.33-.9,.48-2.94-.03-4.37-.94-3.47-2.46-5.66-4.38-8.43-.67-1.02-1.1-1.95-1.42-3.12-.26-.87-.22-1.92-.19-3.03,.04-1.16,.07-2.35-.21-3.42-.66-2.98-2.83-4.75-5.82-4.75-1,0-2.06,.21-3.05,.61-3.05,1.21-5.36,3.88-6.34,7.33-.78,2.65-.5,5.74-.19,9.01,.23,2.47,.47,5.02,.21,7.42-.17,1.69-1.19,10.33-4.62,14.25-.36,.57-1.24,.92-1.88,.92-.53,0-.93-.23-1.11-.62h0c.27,1.61,.63,3.19,1.06,4.62,.27,.87,.55,1.71,.81,2.51,1.27,3.9,2.27,6.98,2.27,9.7-.06,1.93-1.26,3.33-2.11,4.16,.34,0,.69,.01,1.05,.02,1.58,.03,3.24,.06,4.89,.06,1.12,0,2.24-.01,3.32-.05q.53,0,.91-.42c.14-.15,.31-.35,.55-.58,.57-.68,.38-1.42,.17-2.28-.06-.23-.11-.45-.15-.67-.74-5.4,1.31-11.4,3.11-16.69,.34-1,.67-1.97,.97-2.89,1.66-4.95,3.36-10.45,4.55-17.08,.07-.46,.47-.81,.96-.81,.11,0,.22,.02,.32,.06,.22,.07,.52,.28,.67,.85,.37,1.42,.78,3.18,1.23,5.05,.48,2.03,.99,4.19,1.51,6.2l.08,.29c.65,2.54,1.39,5.41,3.11,7.38,.01,0,.02,0,.03,0Zm16.9-19.38c-.12,.34-.23,.69-.34,1.03,.1-.32,.22-.67,.34-1.03Z"/>
        </g>
        <g>
          <path class="cls-1" d="M149.06,123.01c-.83,0-1.16-.39-1.3-.72-.01-.03-.02-.07-.03-.11-.04-.2-.16-.35-.31-.54-.19-.24-.43-.53-.5-.96-.13-.52-.13-1.12-.14-1.75,0-.69,0-1.41-.21-2.07-.12-.42-.45-1.03-.79-1.68-.23-.44-.48-.9-.7-1.37-.86-1.74-1.09-2.97-.72-3.86,.27-1,.56-2.06-.04-2.91-.12-.18-.15-.47-.05-.66,.05-.1,.22-.32,.59-.32,.1,0,.27,.02,.46,.06,.14,.02,.3,.05,.46,.07-.55-.36-.81-1.02-.75-1.64,.1-.99,1.1-1.58,2.68-1.58,1.4,.07,2.41,.72,2.73,1.74,.26,.84,.17,1.79-.26,2.66-.42,.82-.85,1.28-1.31,1.53,.09,0,.17-.01,.26-.01,.52,0,1.39,.21,1.39,1.59,0,2.48,1.07,6.34,2.34,8.44,.38,.64,.92,1.16,1.35,1.58,.53,.51,.92,.89,.92,1.37,0,.79-.83,.79-1.15,.79-.17,0-.33-.08-.44-.21-.37-.44-1.13-.53-1.7-.53-.3,0-.6,.03-.88,.06-.12,.02-.27,.17-.35,.26-.25,.27-.59,.64-1.18,.76-.04,0-.08,.01-.12,.01h-.26Z"/>
          <path class="cls-1" d="M149.06,124.01c-1.51,0-2.06-.94-2.22-1.34-.01-.03-.06-.16-.07-.2-.02-.07-.06-.12-.12-.2-.23-.28-.58-.71-.7-1.38-.15-.64-.15-1.3-.16-1.95,0-.67,0-1.28-.17-1.81-.09-.32-.41-.91-.71-1.48-.25-.47-.5-.94-.72-1.42-.98-1.98-1.23-3.44-.79-4.6,.3-1.09,.38-1.64,.08-2.07-.34-.54-.37-1.16-.08-1.68,.16-.28,.39-.51,.67-.65-.05-.26-.06-.54-.04-.8,.16-1.53,1.57-2.48,3.67-2.48,1.86,.09,3.24,1.03,3.68,2.45,.34,1.08,.23,2.3-.32,3.41-.12,.23-.23,.44-.36,.63,.51,.46,.79,1.16,.79,2.03,0,2.29,1.03,5.99,2.2,7.93,.31,.52,.77,.97,1.18,1.36,.63,.61,1.23,1.18,1.23,2.09s-.56,1.79-2.15,1.79h-.47c-.17,0-.33-.08-.44-.21l-.3-.36s-.31-.17-.93-.17c-.16,0-.34,0-.52,.03-.31,.33-.81,.85-1.69,1.03l-.16,.03s-.33,.01-.43,.01Zm-.24-2.15s.1,.02,.24,.02c0,0,.17,0,.18,0,.2-.06,.34-.2,.55-.42,.24-.26,.57-.62,1.11-.62,.25-.04,.59-.07,.95-.07,.43,0,.81,.04,1.16,.12-.38-.39-.79-.84-1.12-1.4-1.38-2.28-2.5-6.33-2.5-9.02,0-.35-.07-.43-.07-.43,0,0-.04-.02-.18-.02s-.28,.02-.42,.04c-.19,.02-.38,.04-.55,.04h-.63c-.58,0-1.25-.02-1.83-.26-.04-.02-.08-.04-.12-.06-.04,.17-.09,.34-.13,.5,0,.02-.02,.08-.03,.1-.16,.38-.16,1.19,.7,2.93,.22,.47,.46,.92,.68,1.34,.39,.73,.72,1.37,.88,1.89,.24,.82,.25,1.65,.25,2.39,0,.57,0,1.1,.11,1.54,.03,.17,.11,.29,.26,.47,.18,.23,.41,.5,.52,.92Zm-3.12-14.54c.08,.27,.11,.55,.11,.83,.03,0,.07-.01,.1-.02,.4-.1,.79-.12,1.05-.12,.13,0,.71,.01,.71,.01,.47,0,.91,0,1.5-1.16,.29-.6,.36-1.26,.19-1.82-.17-.55-.8-.9-1.68-.95-.71,0-1.48,.19-1.52,.57-.01,.15,.03,.59,.44,.64,.28,.04,.5,.28,.5,.56v.14c.02,.29,.05,.98-.62,1.24-.18,.06-.35,.08-.54,.08-.08,0-.17,0-.25-.01Z"/>
        </g>
        <g>
          <path class="cls-1" d="M149.15,90.98c-.07,0-.15-.01-.22-.04-.28-.12-.42-.44-.31-.72,.89-2.38,.02-6.34-.61-9.24l-.08-.38c-.12-.38-.06-.81,.17-1.13,.22-.3,.57-.48,.94-.48,.54,0,1.13,.39,1.26,1.27,1.01,4.11,.83,7.24-.63,10.39-.1,.21-.3,.33-.51,.33Zm-6.11-16.4c-.77,0-.87-.98-.9-1.3-.06-.7-.08-1.36-.1-1.99-.04-1.32-.08-2.45-.45-3.47-.79-2.68-2.13-4.05-4.63-4.75-.27-.08-.44-.33-.41-.61,.03-.27,.25-.49,.53-.51,.06,0,.13,0,.19,0,2.3,0,5.74,2.49,6.76,4.12,.16,.33,.31,.54,.44,.66,0-.08-.02-.16-.04-.26,0-.03,0-.07,0-.1,0-1.59,1.02-2.62,2.6-2.62,.97,0,2.01,.4,2.69,1.04,1.38,1.08,2.57,4.71,1.8,6.62-.3,.83-1,1.31-1.9,1.31-.27,0-.57-.04-.88-.13-1.12-.23-1.62-.7-1.99-1.04-.28-.26-.4-.37-.78-.37-1.07,.08-1.45,1.16-1.49,1.44,0,.05-.48,1.95-1.43,1.95Zm15.2-25.92c-.29,0-.54-.23-.57-.52-.15-1.97-.67-3.99-1.38-5.39-.54-1.09-1.26-1.36-2.02-1.64-.46-.17-.93-.35-1.33-.69-.18-.11-.31-.37-.29-.64,.01-.18,.05-.74,1.72-1.51,.5-.23,.87-.33,1.21-.33,.6,0,.96,.33,1.31,.65,.16,.15,.35,.32,.59,.49,.95,.66,1.76,.98,2.48,.98,.42,0,.8-.11,1.16-.32,.28-.22,.47-.7,.66-1.21,.29-.75,.61-1.6,1.55-1.93,.33-.13,.68-.19,1.01-.19,1.95,0,3.1,2.21,3.49,4.1,.25,1.15-.02,2.34-.71,3.19-.58,.72-1.41,1.12-2.31,1.12-.57,0-1.16-.16-1.75-.47-.58-.37-.89-.73-1.16-1.05-.19-.22-.34-.41-.57-.57-.3-.2-.62-.31-.92-.31-.68,0-1.14,.6-1.24,1.61-.06,.67-.14,1.39-.21,2.05-.09,.83-.18,1.61-.18,2.02,0,.3-.24,.55-.54,.57,0,0-.02,0-.02,0Zm-.82-15.01c-.33,0-.83-.13-1.29-.76-1.38-2.12-4.56-7.01-6.86-8.36-.26-.15-.35-.48-.21-.75,.1-.19,.3-.3,.5-.3,.08,0,.16,.02,.24,.05,3.07,1.43,6.24,4.4,8.7,8.13,.25,.47,.24,.97-.01,1.38-.23,.38-.63,.61-1.06,.61h0Z"/>
          <path class="cls-1" d="M150.05,91.4c-.07,0-.15-.01-.22-.04l-1.84-.77c-.28-.12-.42-.44-.31-.72,.79-2.1-.05-5.91-.65-8.68l-.07-.34c-.2-.67-.08-1.41,.34-1.97,.41-.56,1.06-.89,1.75-.89,.95,0,2,.64,2.24,2.07,1.06,4.34,.85,7.65-.7,11.02-.1,.21-.3,.33-.51,.33Zm-1.02-11.28s-.02,0-.03,.01c-.01,.02-.02,.08,0,.17l.1,.43c.22,1.01,.46,2.11,.65,3.21-.08-1.07-.27-2.21-.58-3.47-.04-.27-.12-.35-.15-.35Zm-6-4.54c-.5,0-1.7-.22-1.9-2.22-.06-.73-.09-1.4-.11-2.04-.04-1.24-.08-2.3-.39-3.16-.71-2.4-1.81-3.53-3.96-4.13l-5.64-1.59c-.27-.08-.44-.33-.41-.61,.03-.27,.25-.49,.53-.51l5.85-.37c.08,0,.17,0,.26,0,2.26,0,5.09,1.85,6.67,3.44,.17-.29,.39-.55,.64-.77,.64-.57,1.49-.87,2.46-.87,1.2,0,2.48,.49,3.34,1.28,1.66,1.35,3.02,5.43,2.09,7.73-.45,1.23-1.51,1.97-2.84,1.97-.35,0-.72-.05-1.11-.15-1.38-.29-2.04-.91-2.44-1.28-.04-.04-.08-.07-.1-.1-.37,.09-.5,.6-.5,.62-.03,.15-.59,2.76-2.42,2.76Zm-1.3-10.33c.43,.74,.71,1.5,.92,2.21,.42,1.15,.46,2.43,.51,3.79,.02,.5,.03,1.02,.07,1.56,.05-.13,.1-.26,.12-.38,.12-.84,.94-2.26,2.57-2.38h0c.86,0,1.24,.36,1.58,.68,.31,.29,.63,.59,1.48,.77,.25,.06,.45,.09,.62,.09,.44,0,.7-.18,.85-.58,.59-1.46-.41-4.52-1.48-5.36-.51-.48-1.27-.77-1.96-.77s-1.44,.25-1.46,1.44c.13,.75,0,1.18-.03,1.26-.05,.14-.15,.25-.28,.32-.16,.08-.34,.12-.52,.12-.64,0-1.27-.53-1.69-1.42-.25-.39-.72-.88-1.3-1.36Zm15.5-16.5c-.29,0-.54-.23-.57-.52-.14-1.85-.62-3.73-1.28-5.03-.37-.73-.78-.89-1.47-1.15-.47-.18-1.06-.4-1.59-.83-.46-.35-.73-.92-.68-1.51,.07-.92,.77-1.64,2.3-2.34,.64-.29,1.14-.42,1.63-.42,.99,0,1.59,.55,1.99,.91,.15,.13,.3,.27,.49,.41,.76,.53,1.4,.8,1.91,.8,.19,0,.36-.04,.54-.12,.12-.15,.25-.49,.35-.77,.31-.81,.78-2.03,2.12-2.5,.44-.17,.91-.26,1.37-.26,2.54,0,4,2.64,4.47,4.89,.31,1.44-.03,2.95-.91,4.03-.78,.96-1.88,1.49-3.09,1.49-.74,0-1.49-.2-2.22-.59-.01,0-.08-.05-.1-.06-.68-.43-1.07-.89-1.35-1.22-.15-.17-.27-.32-.36-.38-.15-.1-.29-.14-.36-.14-.06,.02-.2,.25-.24,.69-.05,.67-.14,1.39-.21,2.05-.09,.76-.18,1.58-.18,1.94,0,.3-.24,.55-.54,.57,0,0-2.01,.08-2.02,.08Zm-3.24-8.98c.21,.11,.43,.19,.67,.28,.85,.32,1.9,.71,2.64,2.19,.31,.61,.55,1.24,.75,1.87,0-.06,0-.12,.01-.18,.15-1.61,1.08-2.64,2.37-2.64,.52,0,1.06,.18,1.56,.51,.35,.25,.57,.51,.78,.76,.24,.28,.46,.55,.87,.8,.38,.2,.79,.32,1.18,.32,.56,0,1.07-.25,1.43-.7,.47-.59,.65-1.42,.48-2.24-.33-1.6-1.2-3.2-2.38-3.2-.2,0-.4,.04-.62,.12-.44,.15-.62,.58-.88,1.27-.23,.6-.49,1.28-1.08,1.74-.6,.36-1.18,.52-1.8,.52-.96,0-1.98-.39-3.12-1.18-.3-.21-.52-.41-.71-.58-.31-.28-.4-.35-.55-.35-.16,0-.41,.08-.74,.23-.36,.17-.65,.33-.84,.47Zm3.41-5.11c-.46,0-1.35-.15-2.1-1.17-1.26-1.93-4.46-6.85-6.56-8.09-.26-.15-.35-.48-.21-.75l.93-1.77c.1-.19,.3-.3,.5-.3,.08,0,.16,.02,.24,.05,3.24,1.51,6.56,4.6,9.11,8.49,.01,.02,.05,.08,.06,.09,.41,.78,.38,1.64-.05,2.35-.42,.69-1.13,1.1-1.92,1.1Zm-3.03-6.33c1.07,1.46,2.02,2.93,2.68,3.93,.14,.2,.29,.27,.36,.27,.05,0,.08-.05,.09-.07,.02-.03,.06-.12,0-.22-.95-1.44-2.01-2.76-3.13-3.92Z"/>
        </g>
        <g>
          <path class="cls-1" d="M148.4,105.74c-.23,0-.39-.11-.5-.19-.1-.07-.17-.12-.32-.12-.06,0-.17,.03-.25,.05-.12,.03-.25,.07-.39,.07-.4,0-.68-.29-.68-.69,0-.66,.65-1.14,1.55-1.14,.52,0,1.06,.46,1.24,.88,.14,.34,.08,.69-.16,.93-.11,.11-.33,.2-.48,.2Z"/>
          <path class="cls-1" d="M148.4,106.74c-.41,0-.71-.14-.91-.26-.17,.04-.35,.08-.56,.08-.94,0-1.68-.74-1.68-1.69,0-1.22,1.1-2.14,2.55-2.14,1,0,1.86,.77,2.16,1.5,.3,.72,.15,1.49-.37,2.02-.02,.02-.09,.09-.11,.11-.36,.27-.71,.38-1.07,.38Z"/>
        </g>
      </g>
      <g>
        <g>
          <g>
            <path class="cls-1" d="M39.91,118.79c-2.96,0-5.32-.78-7.22-2.37-1.8-1.65-2.63-3.38-2.63-5.46,0-.93,.13-1.79,.39-2.56,.69-2.14,2.5-3.9,4.97-4.81,.95-.35,2.03-.64,3.22-.85,1.27-.22,2.64-.48,4.2-.81,1.73-.37,3.37-.8,4.87-1.27,.46-.15,.73-.24,.9-.3,0-.3-.03-.54-.06-.75-.24-1.54-2.57-1.61-3.04-1.61-.52,0-1.02,.06-1.51,.18-1.2,.3-1.82,.72-2.28,1.54-.15,.27-.3,.59-.44,.93-.09,.21-.3,.34-.52,.34-.02,0-9.32-.98-9.32-.98-.16-.02-.31-.1-.4-.24-.09-.13-.13-.3-.09-.46,.43-1.73,.9-3,1.49-4.01,1.29-2.19,3.9-3.48,7.98-3.94,1.41-.16,2.98-.24,4.78-.24,.8,0,1.61,.01,2.4,.04,3.49,.09,7.36,.58,9.66,3.5,1.27,1.63,2.03,4.04,2.03,6.43v11.02c0,.47,0,.92,.01,1.32,.03,1.29,.42,2.71,1.07,3.8,.1,.17,.1,.39,0,.57-.1,.18-.29,.29-.49,.29h-8.99c-.18,0-.34-.08-.45-.22-.53-.69-.88-1.42-1.04-2.21-.18,.14-.36,.28-.55,.42-2.46,1.83-5.29,2.69-8.93,2.69Zm8.7-12.41c-.27,.1-.53,.2-.8,.29-1.19,.42-2.18,.71-3.09,.92l-.28,.06c-.85,.19-1.66,.37-2.36,.77-.79,.45-1.15,1-1.15,1.74,0,1.52,1.59,2.08,2.66,2.08,1.58,0,3.66-.73,4.51-2.34,.36-.67,.52-1.55,.52-2.78v-.73Z"/>
            <path class="cls-1" d="M39.91,119.79c-3.2,0-5.79-.86-7.89-2.63-2.02-1.85-2.95-3.81-2.95-6.19,0-1.03,.15-2,.44-2.87,.79-2.44,2.82-4.42,5.58-5.44,.99-.37,2.13-.67,3.36-.89l-8.26-.87c-.16-.02-.31-.1-.4-.24-.09-.13-.13-.3-.09-.46l.27-1.11c.45-1.83,.96-3.19,1.6-4.28,1.46-2.48,4.32-3.93,8.73-4.43,1.45-.16,3.04-.24,4.89-.24,.82,0,1.63,.02,2.44,.04,3.72,.1,7.87,.63,10.42,3.89,1.4,1.8,2.24,4.44,2.24,7.05v11.02c0,.51,0,.92,.01,1.3,.02,1.13,.37,2.37,.93,3.32l.88,1.51c.1,.17,.1,.39,0,.57-.1,.18-.29,.29-.49,.29h-11.23c-.18,0-.34-.08-.45-.22l-.3-.39c-.3-.38-.55-.79-.75-1.21-2.54,1.71-5.41,2.5-8.99,2.5Zm5.61-22.92c1.82,0,3.86,.68,4.16,2.58,.05,.35,.08,.75,.08,1.27s-.36,.61-1.69,1.04c-1.53,.48-3.21,.91-4.97,1.3-1.57,.33-2.96,.6-4.24,.82-1.11,.2-2.13,.47-3.02,.8-2.14,.79-3.7,2.28-4.29,4.09-.22,.67-.33,1.41-.33,2.21,0,1.76,.69,3.18,2.24,4.6,1.69,1.42,3.75,2.09,6.47,2.09,3.38,0,6-.78,8.26-2.46,.47-.35,.9-.7,1.3-1.07,.11-.1,.24-.15,.38-.15,.08,0,.16,.02,.23,.05,.21,.09,.34,.29,.34,.52,0,.9,.25,1.69,.75,2.43h7.78c-.48-1.09-.76-2.34-.79-3.49-.01-.41-.01-.86-.01-1.35v-11.02c0-2.15-.67-4.3-1.79-5.74-2-2.55-5.41-2.98-8.8-3.07-.79-.02-1.59-.04-2.38-.04-1.76,0-3.28,.07-4.65,.23-3.7,.42-6.03,1.53-7.13,3.39-.46,.78-.84,1.77-1.2,3.07l8.2,.86c.11-.23,.21-.45,.32-.65,.77-1.37,1.9-1.82,3-2.09,.58-.15,1.18-.22,1.79-.22Zm0,2.13c-.43,0-.86,.05-1.27,.15-1.04,.26-1.37,.56-1.65,1.06-.13,.23-.26,.51-.4,.84,.14-.03,.29-.06,.44-.09,1.71-.37,3.32-.79,4.78-1.24,.04-.01,.09-.03,.13-.04-.2-.49-1.32-.67-2.02-.67Zm-1.93,14.37c-1.84,0-3.79-1.13-3.79-3.21,0-1.15,.58-2.06,1.72-2.72,.86-.49,1.79-.7,2.68-.9l.28-.06c.87-.2,1.82-.48,2.97-.88,.51-.17,1.01-.37,1.52-.58,.07-.03,.14-.04,.22-.04,.11,0,.22,.03,.32,.1,.16,.11,.25,.28,.25,.47v1.57c0,1.42-.21,2.48-.66,3.32-1.07,2.03-3.54,2.94-5.51,2.94Zm4.01-5.57c-1.03,.34-1.87,.58-2.66,.76l-.28,.06c-.78,.17-1.51,.33-2.09,.66-.65,.38-.65,.68-.65,.87,0,.88,1.2,1.08,1.66,1.08,1.29,0,3-.63,3.63-1.81,.21-.4,.34-.92,.38-1.62Z"/>
          </g>
          <g>
            <rect class="cls-1" x="64.16" y="82.18" width="10.85" height="35.93" rx=".57" ry=".57"/>
            <path class="cls-1" d="M63.72,119.11c-.31,0-.57-.25-.57-.57v-36.8c0-.31,.25-.57,.57-.57h11.72c.31,0,.57,.25,.57,.57v36.8c0,.31-.25,.57-.57,.57h-11.72Zm10.15-2.13v-33.66h-8.58v33.66h8.58Z"/>
          </g>
          <g>
            <path class="cls-1" d="M91.37,118.79c-2.38,0-4.39-.39-5.54-1.07-1.2-.69-2.15-1.72-2.81-3.05-.75-1.4-.91-3.57-.91-6.39v-8.25h-3.02c-.31,0-.57-.25-.57-.57v-7.3c0-.31,.25-.57,.57-.57h3.02v-4c0-.21,.12-.41,.31-.51l9.71-4.85c.08-.04,.17-.06,.25-.06,.1,0,.21,.03,.3,.08,.17,.1,.27,.29,.27,.48v8.85h4.85c.31,0,.57,.25,.57,.57v7.3c0,.31-.25,.57-.57,.57h-4.85v8.25c0,1.12,.16,1.75,.31,1.98,.11,.22,.47,.54,1.09,.54,.74,0,1.65-.19,2.87-.59,.06-.02,.12-.03,.18-.03,.11,0,.21,.03,.3,.09,.14,.09,.24,.24,.26,.41l.8,6.67c.04,.3-.17,.58-.47,.63l-.33,.06c-2.3,.39-4.47,.76-6.61,.76Z"/>
            <path class="cls-1" d="M91.37,119.79c-2.59,0-4.73-.43-6.04-1.2-1.37-.79-2.45-1.95-3.19-3.45-.85-1.59-1.03-3.89-1.03-6.87v-7.25h-3.02c-.31,0-.57-.25-.57-.57v-9.3c0-.31,.25-.57,.57-.57h3.02v-3.62c0-.21,.12-.41,.31-.51l11.71-5.84c.08-.04,.17-.06,.25-.06,.1,0,.21,.03,.3,.08,.17,.1,.27,.29,.27,.48v9.46h4.85c.31,0,.57,.25,.57,.57v9.3c0,.31-.25,.57-.57,.57h-4.85v7.25c0,1.08,.16,1.46,.16,1.46,0,0,.01,.02,.02,.02,.04,.02,.12,.04,.22,.04,.63,0,1.44-.17,2.55-.54l1.16-.39c.06-.02,.12-.03,.18-.03,.11,0,.21,.03,.3,.09,.14,.09,.24,.24,.26,.41l1.06,8.83c.04,.3-.17,.58-.47,.63l-1.25,.21c-2.34,.4-4.56,.78-6.8,.78Zm-8.69-20.9c.31,0,.57,.25,.57,.57v8.82c0,3.14,.23,4.84,.78,5.87,.57,1.14,1.37,2.01,2.38,2.6,.96,.57,2.82,.91,4.96,.91,1.99,0,4.05-.34,6.22-.71l-.66-5.46c-1.03,.31-1.83,.45-2.57,.45-.92,0-1.78-.46-2.08-1.13-.29-.42-.46-1.3-.46-2.53v-8.82c0-.31,.25-.57,.57-.57h4.85v-6.17h-4.85c-.31,0-.57-.25-.57-.57v-8.5l-8.58,4.28v4.21c0,.31-.25,.57-.57,.57h-3.02v6.17h3.02Z"/>
          </g>
        </g>
        <g>
          <g>
            <rect class="cls-1" x="64.16" y="122.27" width="10.85" height="36.02" rx=".57" ry=".57"/>
            <path class="cls-1" d="M63.72,159.29c-.31,0-.57-.25-.57-.57v-36.89c0-.31,.25-.57,.57-.57h11.72c.31,0,.57,.25,.57,.57v36.89c0,.31-.25,.57-.57,.57h-11.72Zm10.15-2.13v-33.75h-8.58v33.75h8.58Z"/>
          </g>
          <g>
            <path class="cls-1" d="M81.11,158.29c-.31,0-.57-.25-.57-.57v-25.35c0-.31,.25-.57,.57-.57h9.67c.31,0,.57,.25,.57,.57v25.35c0,.31-.25,.57-.57,.57h-9.67Zm0-28.4c-.31,0-.57-.25-.57-.57v-6.49c0-.31,.25-.57,.57-.57h9.67c.31,0,.57,.25,.57,.57v6.49c0,.31-.25,.57-.57,.57h-9.67Z"/>
            <path class="cls-1" d="M80.11,159.29c-.31,0-.57-.25-.57-.57v-27.35c0-.24,.15-.44,.35-.53-.21-.08-.35-.29-.35-.53v-8.49c0-.31,.25-.57,.57-.57h11.67c.31,0,.57,.25,.57,.57v8.49c0,.24-.15,.44-.35,.53,.21,.08,.35,.29,.35,.53v27.35c0,.31-.25,.57-.57,.57h-11.67Zm10.11-2.13v-24.21h-8.54v24.21h8.54Zm0-28.4v-5.36h-8.54v5.36h8.54Z"/>
          </g>
          <g>
            <path class="cls-1" d="M113.94,158.29c-.31,0-.57-.25-.57-.57v-14.04c0-.89,0-1.8-.38-2.5-.41-.77-1.29-1.24-2.29-1.24-.42,0-.83,.08-1.19,.25-1.09,.49-1.73,1.66-1.97,2.58-.19,.74-.29,1.7-.29,2.87v12.09c0,.31-.25,.57-.57,.57h-9.71c-.31,0-.57-.25-.57-.57v-25.35c0-.31,.25-.57,.57-.57h9.14c.31,0,.57,.25,.57,.57v2.61c.31-.34,.64-.66,.97-.96,2.06-1.85,4.38-2.67,7.55-2.67,2.74,0,5.1,.92,6.64,2.6,1.64,1.51,2.57,4.25,2.57,7.69v16.08c0,.31-.25,.57-.57,.57h-9.9Z"/>
            <path class="cls-1" d="M112.94,159.29c-.31,0-.57-.25-.57-.57v-15.04c0-.77,0-1.55-.26-2.03-.28-.53-.92-.72-1.41-.72-.28,0-.55,.05-.78,.16-.62,.28-1.19,1.05-1.42,1.92-.17,.66-.26,1.54-.26,2.62v13.09c0,.31-.25,.57-.57,.57h-11.71c-.31,0-.57-.25-.57-.57v-27.35c0-.31,.25-.57,.57-.57h11.14c.31,0,.57,.25,.57,.57v1.32c2.07-1.59,4.48-2.34,7.52-2.34s5.62,1.03,7.35,2.89c1.83,1.71,2.86,4.7,2.86,8.4v17.08c0,.31-.25,.57-.57,.57h-11.9Zm10.33-2.13v-15.51c0-3.12-.79-5.56-2.23-6.89-1.36-1.47-3.42-2.26-5.84-2.26-2.87,0-4.96,.73-6.79,2.38-.65,.59-1.27,1.26-1.84,2.02-.11,.14-.28,.22-.45,.22-.06,0-.12,0-.18-.03-.23-.08-.39-.29-.39-.54v-3.6h-8.01v24.21h8.58v-11.52c0-1.28,.11-2.31,.33-3.15,.39-1.5,1.39-2.78,2.61-3.33,.51-.23,1.08-.35,1.66-.35,1.42,0,2.68,.71,3.29,1.84,.51,.95,.51,2.06,.51,3.04v13.47h8.76Z"/>
          </g>
          <g>
            <path class="cls-1" d="M137.94,158.87c-2.7,0-4.88-.84-6.66-2.57-1.63-1.84-2.41-4.39-2.41-7.8v-16.12c0-.31,.25-.57,.57-.57h9.67c.31,0,.57,.25,.57,.57v14.1c0,1.22,.31,2.23,.86,2.77,.69,.7,1.49,.84,2.04,.84,.88,0,1.75-.37,2.4-1.02,.99-1,.99-3.23,.99-4.43v-12.27c0-.31,.25-.57,.57-.57h9.62c.31,0,.57,.25,.57,.57v25.35c0,.31-.25,.57-.57,.57h-8.95c-.31,0-.57-.25-.57-.57v-2.58c-.2,.2-.4,.39-.6,.57-1.73,1.57-3.48,2.49-5.5,2.9-.81,.16-1.69,.25-2.6,.25Z"/>
            <path class="cls-1" d="M137.94,159.87c-2.97,0-5.38-.93-7.36-2.85,0,0-.07-.07-.08-.08-1.77-2.01-2.63-4.76-2.63-8.44v-17.12c0-.31,.25-.57,.57-.57h11.67c.31,0,.57,.25,.57,.57v15.1c0,.94,.21,1.71,.57,2.07,.45,.45,.97,.55,1.33,.55,.62,0,1.23-.26,1.69-.72,.7-.71,.7-2.82,.7-3.73v-13.27c0-.31,.25-.57,.57-.57h11.62c.31,0,.57,.25,.57,.57v27.35c0,.31-.25,.57-.57,.57h-10.95c-.31,0-.57-.25-.57-.57v-1.37c-1.53,1.16-3.11,1.88-4.9,2.25-.87,.18-1.81,.27-2.8,.27Zm-7.94-11.38c0,3.13,.68,5.43,2.09,7.02,1.55,1.5,3.42,2.22,5.84,2.22,.84,0,1.64-.08,2.38-.22,1.82-.37,3.39-1.21,4.96-2.63,.49-.45,1-.96,1.51-1.52,.11-.12,.26-.19,.42-.19,.07,0,.14,.01,.2,.04,.22,.08,.36,.29,.36,.53v3.42h7.82v-24.21h-8.49v11.71c0,1.36,0,3.9-1.33,5.23-.86,.86-2.03,1.35-3.2,1.35-1.08,0-2.09-.42-2.84-1.18-1.04-1.04-1.19-2.68-1.19-3.58v-13.54h-8.54v15.55Z"/>
          </g>
          <g>
            <path class="cls-1" d="M179.96,158.29c-.2,0-.39-.11-.49-.29l-4.12-7.28-5,7.32c-.11,.16-.28,.25-.47,.25h-10.48c-.21,0-.41-.12-.5-.31s-.08-.41,.04-.59l9.04-12.92-8.59-11.76c-.13-.17-.14-.4-.05-.59s.29-.31,.51-.31h11.69c.21,0,.4,.11,.5,.29l3.39,6.16,4.05-6.2c.1-.16,.28-.26,.47-.26h10.69c.21,0,.4,.12,.5,.3,.1,.19,.08,.41-.04,.59l-8.19,11.77,9.04,12.93c.12,.17,.14,.4,.04,.59s-.29,.31-.5,.31h-11.55Z"/>
            <path class="cls-1" d="M179.38,159.29c-.2,0-.39-.11-.49-.29l-3.62-6.39-4.39,6.43c-.11,.16-.28,.25-.47,.25h-12.93c-.21,0-.41-.12-.5-.31s-.08-.41,.04-.59l9.73-13.91-9.33-12.78c-.13-.17-.14-.4-.05-.59s.29-.31,.51-.31h14.25c.21,0,.4,.11,.5,.29l2.88,5.22,3.44-5.26c.1-.16,.28-.26,.47-.26h13.15c.21,0,.4,.12,.5,.3,.1,.19,.08,.41-.04,.59l-8.88,12.76,9.74,13.93c.12,.17,.14,.4,.04,.59s-.29,.31-.5,.31h-14.05Zm11.04-2.13l-8.65-12.36c-.14-.2-.14-.45,0-.65l7.79-11.2h-9.3l-4.4,6.73c-.11,.16-.28,.26-.47,.26,0,0-.01,0-.02,0-.2,0-.38-.12-.48-.29l-3.68-6.69h-10.24l8.17,11.19c.14,.2,.15,.46,0,.66l-8.65,12.36h9.09l5.34-7.82c.11-.16,.28-.25,.47-.25,0,0,.02,0,.02,0,.2,0,.37,.12,.47,.29l4.41,7.78h10.13Z"/>
          </g>
        </g>
      </g>
    </g>
    <g>
      <rect class="cls-3" x="55.45" y="64.92" width="108.39" height="101.49"/>
      <g>
        <path class="cls-5" d="M141.98,104.3c-.23,.09-.23,.27-.18,.4,.05,.13,.18,.22,.32,.27,.36,.18,.72,.37,.85,.58,.86,.99,1.26,1.57,1.26,2.73,0,1.44-.71,1.93-.45,3.18,.4,2.15,2.47,4.52,2.47,6.94-.27,2.02-1.84,2.02-2.87,3.27-.22,.41-.41,.76-.41,1.44,0,.59-.26,1.57,.41,1.57,.76,.18,1.03-1.25,1.62-1.25,.98,.27,.98,1.65,1.83,1.65h38.43c-.27-.4-.45-.99-.85-1.26-1.84-1.74-6.66-3.98-7.43-6.84-1.57-4.17,.4-9.68,.99-14.29,2.02-13.66,1.2-21.18-1.25-32.48-1.35-6.49-2.33-11.96-4.39-17.68-.54-1.48-1.57-2.95-2.19-4.43-.58-.85-.86-2.11-1.12-3.18-.67-3.14-.27-6.14-1.21-9.01-.54-1.74-2.2-4.08-3.72-5.16-1.34-.93-3.36-1.07-4.66-1.87-3-1.62-6.09-3.18-9.27-5.19-.4-.27-1.66-.67-2.34-.27,3.51,2.47,5.78,5.47,6.77,9.72,.44,2.24,1.04,3.86-.99,4.84-.58,.4-4.43,2.82-6,7.03-.62,1.08-3.04,6.68-5.86,12.09-6.45-3-11.69-3.18-16.31-.76-9.63,4.61-13.08,15.72-13.48,26.83-.4,10.71,4.25,23.56,3,33.67-.58,3.81-2.6,6.59-7.44,7.67-.58,0-.99,.18-.81,.58h24.32c1.26,0,1.44-.8,2.69-1.83,1.43-1.39,0-3.22,0-6.68,0-5.06,1.96-10.03,3.58-14.74,1.78-5.15,3.36-10.3,4.44-15.63,.57,2.37,1.16,5.55,1.97,8.6,.76,2.87,1.7,5.6,3.09,7.44-.59,.23-1.12,.58-1.66,.81-1.07,.4-2.19,.9-3.13,1.26Z"/>
        <path class="cls-2" d="M157.12,123.6c.63-2.92-.22-5.2-1.21-7.17-.72-1.56-1.93-3.18-3.01-5.02-1.03-1.97-.49-3.94-.76-5.87-.26-1.97-1.92-3.81-3.9-3.63-2.01-2.15-2.77-5.33-3.49-8.11-.99-3.85-1.97-8.28-2.73-11.24-.05-.18-.14-.4-.31-.46-.23-.08-.5,.06-.54,.32-1.16,6.45-2.82,11.91-4.57,17.15-1.83,5.7-4.92,13.04-4.07,19.31,.18,1.02,.79,2.28-.18,3.44-.99,.99-.86,1.17-1.84,1.17-3.45,.13-7.26,0-10.44-.05-.67-.09,2.6-1.7,2.69-4.7,0-3.18-1.43-6.94-3.05-12.05-1.57-5.2-2.15-12.09-1.39-15.95,0-.36,.45-.58,.59,0,.45,2.41-.59,8.11,.81,10.93,.27,.59,1.7,.18,2.02-.4,2.78-3.13,4.12-9.99,4.52-13.98,.58-5.42-1.43-11.69,0-16.52,.94-3.32,3.18-6.32,6.67-7.71,3.94-1.57,8.55-.36,9.63,4.52,.59,2.19-.09,4.79,.4,6.45,.27,.98,.63,1.88,1.34,2.95,1.98,2.87,3.49,5.06,4.44,8.56,.58,1.61,.4,3.85,0,4.83-.46,.58,.4,1.03,.98,.58,.58-1.25,.58-2.24,.98-3.39,.59-1.44,.85-3.45,1.21-4.71,.8-1.97,2.24-3.8,2.64-6,1.17-5.01-.9-10.34-4.66-13.71-2.29-2.06-4.52-3.9-7.12-5.5,1.87-3.9,3.81-7.35,5.46-11.33,1.35-3.45,3.32-5.78,6.23-7.16,3.36,3.09,3.45,1.97,3.67,7.08,.19,2.55,.32,6.27,.22,8.87-.13,3.13,.72,8.37,.27,10.21-.8,5.87-3.03,12.14-3.03,18-.19,5.68,.8,13.52,5.63,17.38,.59,.4,1.79-.45,1.79-1.25,.54-2.11,.36-4.35,.27-6.63-.19-3.81,.35-7.61,1.65-11.25,.8-2.23,1.74-4.29,3.14-6.53,.35-.58,1.02-.18,.76,.4-.18,0-2.6,4.89-3.63,9.09-1.25,4.48-1.79,11.33,.89,15.14,1.43,2.42,2.56,3.76,3.59,6.04,3.27,7.08,.85,13.04-4.13,15.99-2.64,1.52-5.01,1.88-8.46,1.88Z"/>
        <path class="cls-2" d="M146.54,105.86c-.72-.09-.99-.76-.94-1.26,.09-.9,1.39-1.07,2.11-1.07,1.03,.05,1.93,.5,2.19,1.34,.22,.72,.13,1.52-.22,2.24-1.12,2.2-2.06,1.16-3.67,1.57-.54,.09-.59,.41-.09,.63,.63,.26,1.44,.22,2.24,.22,.76,0,1.79-.49,1.79,.94,0,2.5,1.07,6.5,2.42,8.73,.8,1.35,2.19,2.15,2.19,2.65,0,.22-.22,.22-.58,.22-.67-.81-2.06-.81-3.08-.67-.59,0-.77,.86-1.58,1.03-.18,0-.85,.09-1.03-.35-.13-.67-.72-.9-.8-1.48-.27-1.12,.04-2.55-.36-3.9-.22-.76-.94-1.91-1.52-3.13-.62-1.25-1.07-2.55-.71-3.4,.31-1.12,.66-2.38-.1-3.45-.17-.27,.94,.18,1.49,0,.35-.14,.26-.54,.26-.85Z"/>
        <path class="cls-6" d="M149.55,24.03c2.37,1.4,5.45,6.09,7.03,8.52,.85,1.16,1.83,.18,1.43-.58-2.41-3.67-5.47-6.54-8.46-7.93h0Zm-12.45,38.48c3.04,.85,4.3,2.69,5.01,5.11,.59,1.61,.4,3.45,.59,5.6,.18,1.83,1.07,0,1.21-.68,.09-.58,.68-1.83,2.05-1.93,1.25,0,.99,1.04,2.91,1.43,1.16,.31,1.83-.09,2.11-.85,.67-1.66-.41-5.02-1.66-6-1.34-1.26-4.34-1.44-4.34,1.16,.12,.67,0,1.02,0,1.02-.45,.23-1.04-.18-1.44-1.02-.99-1.56-4.43-3.98-6.44-3.85h0Zm12.04,27.9c.99-2.64,0-6.85-.67-9.94-.31-.99,1.08-1.39,1.26-.14,.98,3.98,.84,6.98-.59,10.07h0Zm5.46-51.64c-.76,.35-1.7,.94-1.29,1.2,.94,.81,2.5,.54,3.48,2.51,.86,1.71,1.3,3.9,1.44,5.6,0-.77,.27-2.55,.4-4.12,.19-2.06,1.71-2.6,3.05-1.71,.63,.46,.81,1.04,1.66,1.57,2.51,1.34,4.44-.9,3.94-3.22-.4-1.92-1.66-4.3-3.76-3.49-1.25,.44-1.07,2.28-2.11,3.09-1.44,.85-2.96,.22-4.25-.67-1.08-.75-1.08-1.43-2.56-.75Z"/>
        <path class="cls-5" d="M147.79,104.3c.37,0,.95,.57,.68,.85-.18,.13-.31-.28-.9-.28-.36,0-.76,.28-.76,0,0-.31,.4-.57,.98-.57Z"/>
      </g>
      <g>
        <g>
          <path class="cls-5" d="M41.22,99.45c-.16,.29-.32,.63-.47,.98l-9.26-.98c.4-1.62,.85-2.87,1.42-3.86,1.52-2.56,4.81-3.35,7.56-3.67,2.34-.26,4.75-.26,7.11-.2,3.29,.09,7.04,.5,9.23,3.28,1.29,1.65,1.91,4.01,1.91,6.08v11.02c0,.48,0,.93,.01,1.34,.03,1.37,.45,2.89,1.14,4.07h-8.99c-.69-.89-1.03-1.87-1.03-2.99-.46,.42-.91,.78-1.34,1.1-2.56,1.91-5.42,2.57-8.6,2.57-3,0-5.15-.81-6.85-2.24-1.57-1.44-2.42-3.01-2.42-5.02,0-.86,.12-1.66,.36-2.38,.7-2.17,2.54-3.68,4.63-4.45,.88-.32,1.91-.61,3.12-.82,1.41-.24,2.82-.52,4.22-.82,1.64-.35,3.3-.77,4.92-1.28,.69-.22,1.3-.43,1.3-.5,0-.46-.02-.84-.07-1.18-.25-1.63-2.17-2.1-3.6-2.1-.55,0-1.11,.07-1.65,.2-1.17,.3-2.03,.74-2.64,1.82Zm7.96,6.09c-.52,.22-1.04,.41-1.55,.59-.97,.34-2.01,.67-3.03,.9-.96,.22-1.94,.4-2.8,.9-.83,.48-1.44,1.17-1.44,2.23,0,1.75,1.68,2.64,3.23,2.64,1.88,0,4.09-.9,5.01-2.64,.45-.85,.59-1.88,.59-3.05v-1.57Z"/>
          <rect class="cls-4" x="64.72" y="82.75" width="9.72" height="34.8"/>
          <path class="cls-5" d="M92.4,82.75v9.41h5.42v7.3h-5.42v8.82c0,1.04,.13,1.88,.4,2.29,.18,.39,.77,.8,1.57,.8,.85,0,1.83-.22,3.05-.63l.8,6.67c-2.41,.41-4.65,.81-6.85,.81-2.42,0-4.26-.4-5.25-.99-1.16-.67-2.02-1.66-2.59-2.82-.68-1.26-.85-3.27-.85-6.14v-8.82h-3.59v-7.3h3.59v-4.57l9.71-4.85Z"/>
        </g>
        <g>
          <rect class="cls-4" x="64.72" y="122.84" width="9.72" height="34.89"/>
          <path class="cls-5" d="M81.11,122.84h9.67v6.49h-9.67v-6.49h0Zm0,9.54h9.67v25.35h-9.67v-25.35Z"/>
          <path class="cls-5" d="M96.97,132.38h9.14v4.17c.62-.81,1.26-1.5,1.91-2.1,2.09-1.87,4.4-2.52,7.17-2.52,2.55,0,4.79,.85,6.22,2.41,1.56,1.44,2.42,4.04,2.42,7.31v16.08h-9.9v-13.93c0-.95,.02-2.02-.44-2.88-.79-1.47-2.76-1.9-4.22-1.24-1.17,.53-1.98,1.75-2.29,2.96-.21,.8-.31,1.8-.31,3.01v12.09h-9.71v-25.35Z"/>
          <path class="cls-5" d="M156.17,157.73h-8.95v-3.99c-.52,.58-1.04,1.1-1.55,1.56-1.53,1.39-3.19,2.35-5.23,2.77-.77,.16-1.61,.24-2.49,.24-2.68,0-4.65-.84-6.27-2.41-1.43-1.62-2.24-3.98-2.24-7.4v-16.12h9.67v14.1c0,1.08,.24,2.38,1.03,3.18,1.48,1.49,3.82,1.25,5.24-.17,1.12-1.13,1.16-3.36,1.16-4.83v-12.27h9.62v25.35Z"/>
          <polygon class="cls-5" points="159.85 132.38 171.54 132.38 175.39 139.37 179.96 132.38 190.66 132.38 182.24 144.47 191.51 157.73 179.96 157.73 175.39 149.66 169.88 157.73 159.4 157.73 168.68 144.47 159.85 132.38"/>
        </g>
      </g>
    </g>
  </g>
  <g>
    <path class="cls-2" d="M38.43,190.56h-4.29l-.6,1.8h-3.91l4.62-11.15h4.13l4.62,11.15h-3.97l-.6-1.8h0Zm-.76-2.45l-1.36-3.97-1.36,3.97h2.72Z"/>
    <polygon class="cls-2" points="44.24 181.21 48.05 181.21 48.05 189.63 53.98 189.63 53.98 192.35 44.24 192.35 44.24 181.21"/>
    <polygon class="cls-2" points="53.92 181.21 65.5 181.21 65.5 183.98 61.59 183.98 61.59 192.35 57.84 192.35 57.84 183.98 53.92 183.98 53.92 181.21"/>
    <polygon class="cls-2" points="72.95 181.21 76.75 181.21 76.75 189.63 82.63 189.63 82.63 192.35 72.95 192.35 72.95 181.21"/>
    <rect class="cls-1" x="84.53" y="181.21" width="3.81" height="11.15"/>
    <polygon class="cls-2" points="91.11 181.21 94.64 181.21 99.26 187.4 99.26 181.21 102.85 181.21 102.85 192.35 99.26 192.35 94.64 186.26 94.64 192.35 91.11 192.35 91.11 181.21"/>
    <path class="cls-2" d="M113.34,181.21h3.81v6.69c0,.65-.11,1.25-.33,1.85-.21,.6-.6,1.09-1.09,1.53-.49,.43-.98,.76-1.52,.92-.71,.27-1.63,.38-2.67,.38-.6,0-1.25-.05-1.95-.11-.71-.06-1.31-.22-1.74-.44-.49-.22-.92-.54-1.3-.98-.44-.43-.71-.87-.82-1.31-.27-.71-.38-1.31-.38-1.85v-6.69h3.8v6.85c0,.6,.16,1.09,.55,1.41,.38,.33,.92,.49,1.58,.49s1.14-.16,1.52-.49c.38-.32,.54-.81,.54-1.41v-6.85Z"/>
    <polygon class="cls-2" points="118.83 181.21 123.02 181.21 125.19 184.69 127.21 181.21 131.39 181.21 127.53 186.64 131.72 192.35 127.48 192.35 125.09 188.82 122.69 192.35 118.45 192.35 122.69 186.59 118.83 181.21"/>
    <polygon class="cls-2" points="137.81 181.21 149.39 181.21 149.39 183.98 145.47 183.98 145.47 192.35 141.67 192.35 141.67 183.98 137.81 183.98 137.81 181.21"/>
    <polygon class="cls-2" points="151.07 181.21 161.24 181.21 161.24 183.6 154.88 183.6 154.88 185.39 160.8 185.39 160.8 187.68 154.88 187.68 154.88 189.85 161.46 189.85 161.46 192.35 151.07 192.35 151.07 181.21"/>
    <path class="cls-2" d="M171.02,190.56h-4.29l-.6,1.8h-3.92l4.62-11.15h4.13l4.62,11.15h-3.97l-.6-1.8h0Zm-.76-2.45l-1.36-3.97-1.36,3.97h2.72Z"/>
    <polygon class="cls-2" points="176.79 181.21 181.79 181.21 183.69 188 185.65 181.21 190.6 181.21 190.6 192.35 187.5 192.35 187.5 183.87 185.11 192.35 182.28 192.35 179.88 183.87 179.88 192.35 176.79 192.35 176.79 181.21"/>
  </g>
</svg>