<?xml version="1.0" encoding="UTF-8"?>
<svg id="Layer_1" data-name="Layer 1" xmlns="http://www.w3.org/2000/svg" viewBox="0 0 221.13 215.81">
  <defs>
    <style>
      .cls-1 {
        fill: none;
      }

      .cls-2 {
        fill: #fc0;
      }

      .cls-3, .cls-4 {
        fill: #1d1d1b;
      }

      .cls-4, .cls-5, .cls-6 {
        fill-rule: evenodd;
      }

      .cls-5 {
        fill: #ef7d00;
      }

      .cls-6 {
        fill: #fff;
      }
    </style>
  </defs>
  <rect class="cls-1" width="221.13" height="215.81"/>
  <g>
    <rect class="cls-2" x="55.45" y="64.92" width="108.39" height="101.49"/>
    <g>
      <path class="cls-4" d="M141.98,104.3c-.23,.09-.23,.27-.18,.4,.05,.13,.18,.22,.32,.27,.36,.18,.72,.37,.85,.58,.86,.99,1.26,1.57,1.26,2.73,0,1.44-.71,1.93-.45,3.18,.4,2.15,2.47,4.52,2.47,6.94-.27,2.02-1.84,2.02-2.87,3.27-.22,.41-.41,.76-.41,1.44,0,.59-.26,1.57,.41,1.57,.76,.18,1.03-1.25,1.62-1.25,.98,.27,.98,1.65,1.83,1.65h38.43c-.27-.4-.45-.99-.85-1.26-1.84-1.74-6.66-3.98-7.43-6.84-1.57-4.17,.4-9.68,.99-14.29,2.02-13.66,1.2-21.18-1.25-32.48-1.35-6.49-2.33-11.96-4.39-17.68-.54-1.48-1.57-2.95-2.19-4.43-.58-.85-.86-2.11-1.12-3.18-.67-3.14-.27-6.14-1.21-9.01-.54-1.74-2.2-4.08-3.72-5.16-1.34-.93-3.36-1.07-4.66-1.87-3-1.62-6.09-3.18-9.27-5.19-.4-.27-1.66-.67-2.34-.27,3.51,2.47,5.78,5.47,6.77,9.72,.44,2.24,1.04,3.86-.99,4.84-.58,.4-4.43,2.82-6,7.03-.62,1.08-3.04,6.68-5.86,12.09-6.45-3-11.69-3.18-16.31-.76-9.63,4.61-13.08,15.72-13.48,26.83-.4,10.71,4.25,23.56,3,33.67-.58,3.81-2.6,6.59-7.44,7.67-.58,0-.99,.18-.81,.58h24.32c1.26,0,1.44-.8,2.69-1.83,1.43-1.39,0-3.22,0-6.68,0-5.06,1.96-10.03,3.58-14.74,1.78-5.15,3.36-10.3,4.44-15.63,.57,2.37,1.16,5.55,1.97,8.6,.76,2.87,1.7,5.6,3.09,7.44-.59,.23-1.12,.58-1.66,.81-1.07,.4-2.19,.9-3.13,1.26Z"/>
      <path class="cls-6" d="M157.12,123.6c.63-2.92-.22-5.2-1.21-7.17-.72-1.56-1.93-3.18-3.01-5.02-1.03-1.97-.49-3.94-.76-5.87-.26-1.97-1.92-3.81-3.9-3.63-2.01-2.15-2.77-5.33-3.49-8.11-.99-3.85-1.97-8.28-2.73-11.24-.05-.18-.14-.4-.31-.46-.23-.08-.5,.06-.54,.32-1.16,6.45-2.82,11.91-4.57,17.15-1.83,5.7-4.92,13.04-4.07,19.31,.18,1.02,.79,2.28-.18,3.44-.99,.99-.86,1.17-1.84,1.17-3.45,.13-7.26,0-10.44-.05-.67-.09,2.6-1.7,2.69-4.7,0-3.18-1.43-6.94-3.05-12.05-1.57-5.2-2.15-12.09-1.39-15.95,0-.36,.45-.58,.59,0,.45,2.41-.59,8.11,.81,10.93,.27,.59,1.7,.18,2.02-.4,2.78-3.13,4.12-9.99,4.52-13.98,.58-5.42-1.43-11.69,0-16.52,.94-3.32,3.18-6.32,6.67-7.71,3.94-1.57,8.55-.36,9.63,4.52,.59,2.19-.09,4.79,.4,6.45,.27,.98,.63,1.88,1.34,2.95,1.98,2.87,3.49,5.06,4.44,8.56,.58,1.61,.4,3.85,0,4.83-.46,.58,.4,1.03,.98,.58,.58-1.25,.58-2.24,.98-3.39,.59-1.44,.85-3.45,1.21-4.71,.8-1.97,2.24-3.8,2.64-6,1.17-5.01-.9-10.34-4.66-13.71-2.29-2.06-4.52-3.9-7.12-5.5,1.87-3.9,3.81-7.35,5.46-11.33,1.35-3.45,3.32-5.78,6.23-7.16,3.36,3.09,3.45,1.97,3.67,7.08,.19,2.55,.32,6.27,.22,8.87-.13,3.13,.72,8.37,.27,10.21-.8,5.87-3.03,12.14-3.03,18-.19,5.68,.8,13.52,5.63,17.38,.59,.4,1.79-.45,1.79-1.25,.54-2.11,.36-4.35,.27-6.63-.19-3.81,.35-7.61,1.65-11.25,.8-2.23,1.74-4.29,3.14-6.53,.35-.58,1.02-.18,.76,.4-.18,0-2.6,4.89-3.63,9.09-1.25,4.48-1.79,11.33,.89,15.14,1.43,2.42,2.56,3.76,3.59,6.04,3.27,7.08,.85,13.04-4.13,15.99-2.64,1.52-5.01,1.88-8.46,1.88Z"/>
      <path class="cls-6" d="M146.54,105.86c-.72-.09-.99-.76-.94-1.26,.09-.9,1.39-1.07,2.11-1.07,1.03,.05,1.93,.5,2.19,1.34,.22,.72,.13,1.52-.22,2.24-1.12,2.2-2.06,1.16-3.67,1.57-.54,.09-.59,.41-.09,.63,.63,.26,1.44,.22,2.24,.22,.76,0,1.79-.49,1.79,.94,0,2.5,1.07,6.5,2.42,8.73,.8,1.35,2.19,2.15,2.19,2.65,0,.22-.22,.22-.58,.22-.67-.81-2.06-.81-3.08-.67-.59,0-.77,.86-1.58,1.03-.18,0-.85,.09-1.03-.35-.13-.67-.72-.9-.8-1.48-.27-1.12,.04-2.55-.36-3.9-.22-.76-.94-1.91-1.52-3.13-.62-1.25-1.07-2.55-.71-3.4,.31-1.12,.66-2.38-.1-3.45-.17-.27,.94,.18,1.49,0,.35-.14,.26-.54,.26-.85Z"/>
      <path class="cls-5" d="M149.55,24.03c2.37,1.4,5.45,6.09,7.03,8.52,.85,1.16,1.83,.18,1.43-.58-2.41-3.67-5.47-6.54-8.46-7.93h0Zm-12.45,38.48c3.04,.85,4.3,2.69,5.01,5.11,.59,1.61,.4,3.45,.59,5.6,.18,1.83,1.07,0,1.21-.68,.09-.58,.68-1.83,2.05-1.93,1.25,0,.99,1.04,2.91,1.43,1.16,.31,1.83-.09,2.11-.85,.67-1.66-.41-5.02-1.66-6-1.34-1.26-4.34-1.44-4.34,1.16,.12,.67,0,1.02,0,1.02-.45,.23-1.04-.18-1.44-1.02-.99-1.56-4.43-3.98-6.44-3.85h0Zm12.04,27.9c.99-2.64,0-6.85-.67-9.94-.31-.99,1.08-1.39,1.26-.14,.98,3.98,.84,6.98-.59,10.07h0Zm5.46-51.64c-.76,.35-1.7,.94-1.29,1.2,.94,.81,2.5,.54,3.48,2.51,.86,1.71,1.3,3.9,1.44,5.6,0-.77,.27-2.55,.4-4.12,.19-2.06,1.71-2.6,3.05-1.71,.63,.46,.81,1.04,1.66,1.57,2.51,1.34,4.44-.9,3.94-3.22-.4-1.92-1.66-4.3-3.76-3.49-1.25,.44-1.07,2.28-2.11,3.09-1.44,.85-2.96,.22-4.25-.67-1.08-.75-1.08-1.43-2.56-.75Z"/>
      <path class="cls-4" d="M147.79,104.3c.37,0,.95,.57,.68,.85-.18,.13-.31-.28-.9-.28-.36,0-.76,.28-.76,0,0-.31,.4-.57,.98-.57Z"/>
    </g>
    <g>
      <g>
        <path class="cls-4" d="M41.22,99.45c-.16,.29-.32,.63-.47,.98l-9.26-.98c.4-1.62,.85-2.87,1.42-3.86,1.52-2.56,4.81-3.35,7.56-3.67,2.34-.26,4.75-.26,7.11-.2,3.29,.09,7.04,.5,9.23,3.28,1.29,1.65,1.91,4.01,1.91,6.08v11.02c0,.48,0,.93,.01,1.34,.03,1.37,.45,2.89,1.14,4.07h-8.99c-.69-.89-1.03-1.87-1.03-2.99-.46,.42-.91,.78-1.34,1.1-2.56,1.91-5.42,2.57-8.6,2.57-3,0-5.15-.81-6.85-2.24-1.57-1.44-2.42-3.01-2.42-5.02,0-.86,.12-1.66,.36-2.38,.7-2.17,2.54-3.68,4.63-4.45,.88-.32,1.91-.61,3.12-.82,1.41-.24,2.82-.52,4.22-.82,1.64-.35,3.3-.77,4.92-1.28,.69-.22,1.3-.43,1.3-.5,0-.46-.02-.84-.07-1.18-.25-1.63-2.17-2.1-3.6-2.1-.55,0-1.11,.07-1.65,.2-1.17,.3-2.03,.74-2.64,1.82Zm7.96,6.09c-.52,.22-1.04,.41-1.55,.59-.97,.34-2.01,.67-3.03,.9-.96,.22-1.94,.4-2.8,.9-.83,.48-1.44,1.17-1.44,2.23,0,1.75,1.68,2.64,3.23,2.64,1.88,0,4.09-.9,5.01-2.64,.45-.85,.59-1.88,.59-3.05v-1.57Z"/>
        <rect class="cls-3" x="64.72" y="82.75" width="9.72" height="34.8"/>
        <path class="cls-4" d="M92.4,82.75v9.41h5.42v7.3h-5.42v8.82c0,1.04,.13,1.88,.4,2.29,.18,.39,.77,.8,1.57,.8,.85,0,1.83-.22,3.05-.63l.8,6.67c-2.41,.41-4.65,.81-6.85,.81-2.42,0-4.26-.4-5.25-.99-1.16-.67-2.02-1.66-2.59-2.82-.68-1.26-.85-3.27-.85-6.14v-8.82h-3.59v-7.3h3.59v-4.57l9.71-4.85Z"/>
      </g>
      <g>
        <rect class="cls-3" x="64.72" y="122.84" width="9.72" height="34.89"/>
        <path class="cls-4" d="M81.11,122.84h9.67v6.49h-9.67v-6.49h0Zm0,9.54h9.67v25.35h-9.67v-25.35Z"/>
        <path class="cls-4" d="M96.97,132.38h9.14v4.17c.62-.81,1.26-1.5,1.91-2.1,2.09-1.87,4.4-2.52,7.17-2.52,2.55,0,4.79,.85,6.22,2.41,1.56,1.44,2.42,4.04,2.42,7.31v16.08h-9.9v-13.93c0-.95,.02-2.02-.44-2.88-.79-1.47-2.76-1.9-4.22-1.24-1.17,.53-1.98,1.75-2.29,2.96-.21,.8-.31,1.8-.31,3.01v12.09h-9.71v-25.35Z"/>
        <path class="cls-4" d="M156.17,157.73h-8.95v-3.99c-.52,.58-1.04,1.1-1.55,1.56-1.53,1.39-3.19,2.35-5.23,2.77-.77,.16-1.61,.24-2.49,.24-2.68,0-4.65-.84-6.27-2.41-1.43-1.62-2.24-3.98-2.24-7.4v-16.12h9.67v14.1c0,1.08,.24,2.38,1.03,3.18,1.48,1.49,3.82,1.25,5.24-.17,1.12-1.13,1.16-3.36,1.16-4.83v-12.27h9.62v25.35Z"/>
        <polygon class="cls-4" points="159.85 132.38 171.54 132.38 175.39 139.37 179.96 132.38 190.66 132.38 182.24 144.47 191.51 157.73 179.96 157.73 175.39 149.66 169.88 157.73 159.4 157.73 168.68 144.47 159.85 132.38"/>
      </g>
    </g>
    <g>
      <path class="cls-4" d="M38.43,190.56h-4.29l-.6,1.8h-3.91l4.62-11.15h4.13l4.62,11.15h-3.97l-.6-1.8h0Zm-.76-2.45l-1.36-3.97-1.36,3.97h2.72Z"/>
      <polygon class="cls-4" points="44.24 181.21 48.05 181.21 48.05 189.63 53.98 189.63 53.98 192.35 44.24 192.35 44.24 181.21"/>
      <polygon class="cls-4" points="53.92 181.21 65.5 181.21 65.5 183.98 61.59 183.98 61.59 192.35 57.84 192.35 57.84 183.98 53.92 183.98 53.92 181.21"/>
      <polygon class="cls-4" points="72.95 181.21 76.75 181.21 76.75 189.63 82.63 189.63 82.63 192.35 72.95 192.35 72.95 181.21"/>
      <rect class="cls-3" x="84.53" y="181.21" width="3.81" height="11.15"/>
      <polygon class="cls-4" points="91.11 181.21 94.64 181.21 99.26 187.4 99.26 181.21 102.85 181.21 102.85 192.35 99.26 192.35 94.64 186.26 94.64 192.35 91.11 192.35 91.11 181.21"/>
      <path class="cls-4" d="M113.34,181.21h3.81v6.69c0,.65-.11,1.25-.33,1.85-.21,.6-.6,1.09-1.09,1.53-.49,.43-.98,.76-1.52,.92-.71,.27-1.63,.38-2.67,.38-.6,0-1.25-.05-1.95-.11-.71-.06-1.31-.22-1.74-.44-.49-.22-.92-.54-1.3-.98-.44-.43-.71-.87-.82-1.31-.27-.71-.38-1.31-.38-1.85v-6.69h3.8v6.85c0,.6,.16,1.09,.55,1.41,.38,.33,.92,.49,1.58,.49s1.14-.16,1.52-.49c.38-.32,.54-.81,.54-1.41v-6.85Z"/>
      <polygon class="cls-4" points="118.83 181.21 123.02 181.21 125.19 184.69 127.21 181.21 131.39 181.21 127.53 186.64 131.72 192.35 127.48 192.35 125.09 188.82 122.69 192.35 118.45 192.35 122.69 186.59 118.83 181.21"/>
      <polygon class="cls-4" points="137.81 181.21 149.39 181.21 149.39 183.98 145.47 183.98 145.47 192.35 141.67 192.35 141.67 183.98 137.81 183.98 137.81 181.21"/>
      <polygon class="cls-4" points="151.07 181.21 161.24 181.21 161.24 183.6 154.88 183.6 154.88 185.39 160.8 185.39 160.8 187.68 154.88 187.68 154.88 189.85 161.46 189.85 161.46 192.35 151.07 192.35 151.07 181.21"/>
      <path class="cls-4" d="M171.02,190.56h-4.29l-.6,1.8h-3.92l4.62-11.15h4.13l4.62,11.15h-3.97l-.6-1.8h0Zm-.76-2.45l-1.36-3.97-1.36,3.97h2.72Z"/>
      <polygon class="cls-4" points="176.79 181.21 181.79 181.21 183.69 188 185.65 181.21 190.6 181.21 190.6 192.35 187.5 192.35 187.5 183.87 185.11 192.35 182.28 192.35 179.88 183.87 179.88 192.35 176.79 192.35 176.79 181.21"/>
    </g>
  </g>
</svg>