<?xml version="1.0" encoding="UTF-8"?>
<svg id="Layer_1" data-name="Layer 1" xmlns="http://www.w3.org/2000/svg" viewBox="0 0 884.53 236.68">
  <defs>
    <style>
      .cls-1, .cls-2 {
        fill: #fff;
      }

      .cls-2 {
        fill-rule: evenodd;
      }
    </style>
  </defs>
  <g>
    <path class="cls-1" d="M749.03,47.27c.79,0,1.67,.32,2.02,.56,4.01,2.54,7.91,4.52,11.7,6.55,1.64,1.02,4.18,1.19,5.88,2.36,1.91,1.36,4.01,4.3,4.69,6.51,1.18,3.62,.68,7.4,1.52,11.36,.33,1.35,.68,2.93,1.41,4.01,.79,1.86,2.09,3.72,2.76,5.59,2.61,7.23,3.84,14.12,5.54,22.31,3.1,14.25,4.12,23.74,1.58,40.98-.74,5.82-3.22,12.77-1.24,18.03,.96,3.61,7.06,6.44,9.37,8.63,.51,.34,1.18,1.18,1.08,1.59h-48.49c-1.07,0-1.07-1.75-2.31-2.09-.7,0-1.04,1.6-1.88,1.6-.05,0-.11,0-.17-.02-.84,0-.52-1.24-.52-1.98,0-.85,.23-1.3,.52-1.81,1.3-1.57,3.27-1.57,3.62-4.12,0-3.04-2.6-6.04-3.11-8.75-.34-1.59,.56-2.2,.56-4.02,0-1.47-.51-2.2-1.59-3.45-.16-.27-.62-.5-1.07-.73-.17-.05-.34-.17-.4-.33-.05-.17-.05-.39,.23-.51,1.19-.46,2.6-1.08,3.95-1.59,.68-.28,1.35-.73,2.09-1.02-1.75-2.32-2.94-5.77-3.9-9.38-1.01-3.84-1.76-7.85-2.48-10.85-1.36,6.72-3.35,13.22-5.6,19.72-2.04,5.94-4.52,12.21-4.52,18.59,0,4.35,1.8,6.67,0,8.42-1.58,1.3-1.81,2.31-3.4,2.31h-16.95c-4.58,0-9.1,0-13.73,0-.23-.51,.29-.73,1.02-.73,6.1-1.35,8.65-4.87,9.38-9.67,1.58-12.76-4.29-28.98-3.79-42.49,.51-14.02,4.86-28.03,17.01-33.85,2.66-1.39,5.48-2.1,8.54-2.1,3.64,0,7.61,1.01,12.04,3.06,3.56-6.83,6.61-13.89,7.39-15.26,1.98-5.31,6.84-8.36,7.57-8.87,2.56-1.24,1.8-3.27,1.24-6.11-1.24-5.36-4.12-9.15-8.54-12.26,.26-.15,.59-.21,.93-.21m0-1.26c-.61,0-1.13,.13-1.57,.39l-1.69,.99,1.6,1.13c4.38,3.08,6.93,6.74,8.04,11.51,.05,.26,.11,.55,.17,.84,.16,.75,.35,1.52,.35,2.28,0,.44-.11,.86-.45,1.17-.24,.21-.53,.33-.8,.5-1.72,1.12-3.32,2.48-4.69,4.02-1.05,1.18-1.97,2.49-2.68,3.9-.24,.47-.45,.96-.64,1.45-.33,.61-.92,1.86-1.78,3.71-1.31,2.82-3.07,6.59-5.04,10.44-4.16-1.8-7.92-2.68-11.47-2.68-3.25,0-6.24,.73-9.12,2.25-13.8,6.6-17.24,22.64-17.69,34.92-.24,6.38,.92,13.37,2.04,20.14,1.27,7.65,2.58,15.56,1.75,22.24-.73,4.77-3.28,7.43-8.28,8.57-1.13,.04-1.67,.5-1.92,.89-.31,.47-.34,1.06-.1,1.62l.33,.75h.82s13.73,0,13.73,0h16.95c1.63,0,2.39-.8,3.13-1.58,.31-.32,.63-.66,1.07-1.02l.04-.03,.04-.04c1.6-1.55,1.24-3.4,.86-5.35-.22-1.13-.47-2.42-.47-3.98,0-5.45,1.9-10.9,3.75-16.16,.24-.68,.47-1.35,.7-2.02,1.88-5.43,3.3-10.06,4.39-14.37,.38,1.74,.8,3.6,1.28,5.41,1.01,3.81,2.04,6.53,3.26,8.56-.25,.13-.5,.26-.72,.35-.72,.27-1.5,.59-2.24,.9-.59,.24-1.15,.48-1.68,.68-.86,.33-1.26,1.18-.98,2.06l.02,.05,.02,.05c.19,.46,.57,.83,1.07,1.02,.19,.1,.43,.22,.55,.32l.07,.08c1.02,1.18,1.28,1.61,1.28,2.62,0,.63-.14,1.05-.3,1.54-.23,.72-.49,1.54-.24,2.73,.24,1.3,.9,2.62,1.53,3.9,.75,1.51,1.52,3.07,1.55,4.5-.16,1-.64,1.32-1.5,1.88-.58,.38-1.24,.81-1.83,1.52l-.08,.09-.06,.11c-.3,.55-.67,1.23-.67,2.42,0,.13-.01,.27-.03,.42-.06,.68-.13,1.6,.48,2.27,.3,.33,.71,.52,1.17,.55,.11,.02,.21,.03,.32,.03,.96,0,1.54-.67,1.92-1.19,.03,.04,.05,.09,.08,.13,.35,.58,.93,1.54,2.18,1.54h48.49s.89,.07,1.2-.3c.35-.4,.19-.95-.01-1.38-.38-.79-.82-1.55-1.47-2.15-.79-.74-1.91-1.5-3.09-2.31-1.13-.78-2.27-1.55-3.33-2.44-.95-.8-1.92-1.71-2.41-2.88-1.06-2.54-.93-5.41-.57-8.08,.22-1.63,.54-3.24,.86-4.84,.33-1.65,.66-3.36,.87-4.97,2.56-17.35,1.58-26.8-1.6-41.41-.22-1.06-.43-2.1-.64-3.13-1.42-6.96-2.65-12.97-4.95-19.34-.4-1.12-1-2.2-1.57-3.25-.52-.96-1.03-1.92-1.48-2.91-.22-.48-.48-.97-.62-1.47-.63-2.23-.88-4.47-1.03-6.77-.14-2.14-.28-4.36-.99-6.53-.77-2.49-3.04-5.63-5.16-7.14-1.08-.75-2.32-1.12-3.52-1.48-.81-.24-1.62-.49-2.37-.89-.79-.42-1.57-.85-2.36-1.27-3.05-1.62-6.2-3.3-9.39-5.32-.53-.36-1.65-.75-2.69-.75Z"/>
    <path class="cls-2" d="M750.31,48.27c3.78,1.76,7.63,5.38,10.68,10.01,.5,.96-.74,2.2-1.81,.74-1.99-3.06-5.88-8.98-8.87-10.75Z"/>
    <path class="cls-2" d="M770.53,171.53c-3.33,1.92-6.32,2.38-10.67,2.38,.8-3.69-.28-6.57-1.52-9.05-.91-1.97-2.44-4.02-3.79-6.33-1.3-2.49-.62-4.97-.96-7.4-.33-2.48-2.42-4.81-4.92-4.58-2.54-2.72-3.5-6.72-4.4-10.23-1.25-4.86-2.48-10.44-3.45-14.18-.06-.22-.18-.51-.39-.58-.29-.1-.64,.07-.69,.4-1.47,8.14-3.55,15.03-5.77,21.64-2.31,7.19-6.21,16.45-5.13,24.36,.22,1.29,1,2.88-.23,4.34-1.25,1.25-1.08,1.48-2.32,1.48-4.35,.16-9.15,0-13.17-.06-.84-.12,3.28-2.15,3.4-5.94,0-4.02-1.81-8.75-3.85-15.2-1.98-6.56-2.71-15.26-1.76-20.12,0-.45,.57-.73,.74,0,.56,3.05-.74,10.23,1.02,13.79,.34,.74,2.15,.22,2.54-.5,3.51-3.95,5.2-12.61,5.71-17.64,.73-6.83-1.8-14.75,0-20.85,1.19-4.19,4.01-7.97,8.42-9.72,1.73-.69,3.56-.94,5.27-.74,0,0,0,0,0,0,2.53-.16,6.88,2.89,8.13,4.86,.5,1.07,1.25,1.58,1.82,1.29,0,0,.16-.45,0-1.29,0-3.28,3.78-3.06,5.47-1.46,1.58,1.24,2.94,5.47,2.1,7.57-.35,.96-1.2,1.46-2.66,1.07-2.42-.5-2.1-1.81-3.67-1.81-1.74,.12-2.48,1.7-2.59,2.43-.13,.64-.8,2.11-1.22,1.81,0,.04,.01,.08,.02,.12,.34,1.24,.8,2.37,1.69,3.72,2.5,3.62,4.41,6.39,5.61,10.8,.73,2.03,.5,4.85,0,6.1-.57,.73,.5,1.3,1.24,.73,.73-1.58,.73-2.83,1.23-4.28,.74-1.82,1.08-4.36,1.53-5.94,1.02-2.49,2.82-4.8,3.33-7.57,1.47-6.33-1.13-13.05-5.87-17.29-2.89-2.6-5.71-4.91-8.98-6.94,2.37-4.92,4.8-9.27,6.88-14.3,1.44-3.69,3.46-6.36,6.29-8.16-.13-.37,.89-.99,1.74-1.39,1.87-.86,1.87,0,3.23,.95,1.63,1.13,3.56,1.93,5.37,.85,1.3-1.01,1.08-3.34,2.66-3.89,2.65-1.02,4.23,1.97,4.74,4.4,.63,2.94-1.81,5.76-4.97,4.07-1.07-.67-1.3-1.41-2.1-1.98-1.7-1.13-3.61-.44-3.85,2.15-.15,1.82-.44,3.86-.49,4.93,.16,2.96,.25,6.51,.15,9.14-.16,3.95,.91,10.56,.34,12.89-1,7.4-3.82,15.32-3.82,22.72-.24,7.17,1.01,17.06,7.1,21.93,.74,.5,2.26-.57,2.26-1.58,.68-2.66,.45-5.49,.34-8.37-.23-4.8,.45-9.6,2.09-14.19,1.01-2.81,2.2-5.42,3.96-8.24,.44-.74,1.29-.23,.96,.51-.22,0-3.28,6.16-4.58,11.47-1.58,5.65-2.26,14.29,1.12,19.1,1.8,3.05,3.23,4.75,4.52,7.63,4.12,8.93,1.07,16.45-5.21,20.18Z"/>
    <path class="cls-2" d="M748.95,119.48c-.4-1.25,1.36-1.76,1.59-.17,1.23,5.02,1.07,8.81-.74,12.71,1.24-3.33,0-8.64-.85-12.54Z"/>
    <path class="cls-2" d="M753.87,168.36c-1.71-2.82-3.06-7.86-3.06-11.02,0-1.81-1.3-1.19-2.26-1.19-1.02,0-2.04,.06-2.83-.27-.62-.28-.56-.68,.12-.8,2.03-.51,3.22,.8,4.63-1.98,.44-.91,.57-1.93,.28-2.83-.33-1.07-1.46-1.63-2.76-1.7-.91,0-2.55,.22-2.67,1.36-.06,.63,.28,1.48,1.18,1.59,0,.39,.12,.9-.33,1.07-.69,.23-2.09-.34-1.88,0,.96,1.35,.51,2.94,.12,4.35-.45,1.07,.12,2.71,.9,4.29,.73,1.54,1.64,3,1.92,3.95,.51,1.71,.11,3.5,.45,4.92,.11,.73,.85,1.02,1.01,1.87,.23,.57,1.08,.45,1.3,.45,1.02-.21,1.24-1.3,1.99-1.3,1.29-.17,3.04-.17,3.89,.85,.46,0,.73,0,.73-.28,0-.63-1.75-1.64-2.76-3.34Zm-5.78-18.81c.46,0,1.2,.72,.86,1.07-.23,.17-.4-.35-1.13-.35-.46,0-.96,.35-.96,0,0-.39,.5-.72,1.24-.72Z"/>
  </g>
  <path class="cls-1" d="M137.09,172.11c-.27-1.31-.4-3.13-.4-5.45v-21.75c0-2.32-.42-4.75-1.25-7.31-.83-2.55-1.98-4.52-3.42-5.91-2.06-2.01-4.63-3.33-7.72-3.97-3.09-.63-7.18-.95-12.27-.95-3.17,0-6.12,.26-8.85,.79-2.73,.53-4.87,1.27-6.43,2.23-2.17,1.33-3.83,2.9-4.99,4.71-1.16,1.81-2.04,4.29-2.65,7.45l16.24,1.9c.67-2.13,1.54-3.59,2.63-4.36,1.39-.99,3.48-1.49,6.26-1.49,2.17,0,3.69,.46,4.55,1.39,.86,.93,1.29,2.55,1.29,4.87-2.11,.93-4.12,1.68-6.01,2.25-1.89,.57-6.03,1.57-12.4,2.99-5.31,1.17-8.96,2.97-10.94,5.38-1.97,2.41-2.96,5.49-2.96,9.23,0,3.99,1.37,7.35,4.11,10.06,2.74,2.72,6.76,4.08,12.04,4.08,3.98,0,7.47-.68,10.48-2.04,2.2-1.02,4.41-2.72,6.64-5.1,.19,1.42,.39,2.47,.58,3.13,.19,.67,.61,1.63,1.25,2.9h15.94c-.89-2.04-1.47-3.72-1.73-5.03Zm-17.01-15.33c0,2.35-.34,4.26-1.02,5.73-.68,1.47-1.84,2.71-3.46,3.73-1.63,1.02-3.39,1.53-5.28,1.53-1.81,0-3.18-.47-4.11-1.41-.93-.94-1.4-2.16-1.4-3.64,0-1.3,.47-2.46,1.42-3.48,.92-.99,3.1-1.99,6.55-3.01,2.53-.71,4.97-1.53,7.3-2.46v3.02Z"/>
  <rect class="cls-1" x="145.75" y="109.14" width="17.03" height="67.99"/>
  <path class="cls-1" d="M176.83,170.96c.96,2.45,2.44,4.28,4.45,5.49,2,1.2,5.12,1.81,9.35,1.81,3.65,0,7.57-.51,11.77-1.53l-1.25-13.03c-2.25,.8-4.01,1.2-5.26,1.2-1.39,0-2.36-.53-2.92-1.57-.36-.68-.54-2.07-.54-4.17v-17.45s9.35,0,9.35,0v-13.82s-9.35,0-9.35,0v-18.74s-17.03,9.69-17.03,9.69v9.05s-6.26,0-6.26,0v13.82h6.26s0,17.33,0,17.33c0,5.5,.48,9.47,1.44,11.93Z"/>
  <rect class="cls-1" x="227.33" y="109.14" width="17.03" height="67.99"/>
  <rect class="cls-1" x="254.13" y="127.88" width="16.99" height="49.26"/>
  <rect class="cls-1" x="254.13" y="109.14" width="16.99" height="12.85"/>
  <path class="cls-1" d="M327.14,177.14v-31.31c0-6.49-1.33-11.29-3.99-14.4-2.66-3.11-6.34-4.66-11.04-4.66-3.48,0-6.43,.7-8.85,2.11-2.42,1.41-4.82,3.75-7.18,7.03v-8.02s-15.82,0-15.82,0v49.26s16.99,0,16.99,0v-23.65c0-4.48,.64-7.59,1.92-9.32,1.28-1.73,2.95-2.6,5.01-2.6,1.86,0,3.31,.64,4.34,1.93,1.03,1.28,1.54,3.47,1.54,6.56v27.09s17.07,0,17.07,0Z"/>
  <path class="cls-1" d="M382.28,177.14v-49.26s-16.99,0-16.99,0v23.7c0,4.48-.65,7.59-1.94,9.32-1.3,1.73-2.96,2.59-4.99,2.59-1.86,0-3.31-.65-4.34-1.95-1.03-1.3-1.54-3.49-1.54-6.58v-27.09s-17.07,0-17.07,0v31.35c0,6.46,1.33,11.25,3.99,14.36,2.66,3.11,6.32,4.66,11,4.66,3.51,0,6.46-.7,8.87-2.09,2.41-1.39,4.79-3.72,7.16-7v7.98s15.86,0,15.86,0Z"/>
  <polygon class="cls-1" points="404.65 177.14 414.28 161.28 422.48 177.14 442.31 177.14 426.1 151.35 441.22 127.88 422.48 127.88 414.28 141.61 407.24 127.88 387.08 127.88 402.35 151.35 386.25 177.14 404.65 177.14"/>
  <path class="cls-1" d="M469.68,170.96c.96,2.45,2.44,4.28,4.44,5.49,2,1.2,5.12,1.81,9.35,1.81,3.65,0,7.57-.51,11.77-1.53l-1.25-13.03c-2.25,.8-4.01,1.2-5.26,1.2-1.39,0-2.37-.53-2.92-1.57-.36-.68-.54-2.07-.54-4.17v-17.45s9.35,0,9.35,0v-13.82s-9.35,0-9.35,0v-18.74s-17.03,9.69-17.03,9.69v9.05s-6.26,0-6.26,0v13.82h6.26s0,17.33,0,17.33c0,5.5,.48,9.47,1.44,11.93Z"/>
  <path class="cls-1" d="M550.22,155.06c0-6.49-.96-11.76-2.88-15.81-1.92-4.05-4.72-7.14-8.39-9.28-3.67-2.13-8.68-3.2-15.03-3.2-7.82,0-13.95,2.38-18.39,7.14-4.44,4.76-6.66,10.99-6.66,18.69,0,5.41,1.11,10.12,3.32,14.12,2.21,4,5,6.93,8.37,8.76,3.37,1.84,7.99,2.76,13.86,2.76,6.76,0,11.95-1.08,15.57-3.22,3.62-2.15,6.71-5.7,9.27-10.64l-16.74-1.72c-1.06,1.49-2.05,2.52-2.96,3.11-1.5,.93-3.09,1.39-4.76,1.39-2.64,0-4.79-1.07-6.43-3.2-1.17-1.49-1.91-3.74-2.21-6.77h34.06v-2.13Zm-34.02-6.91c.28-2.94,.93-5.15,1.96-6.63,1.61-2.38,3.77-3.57,6.47-3.57,2.34,0,4.22,.79,5.66,2.37,1.43,1.58,2.32,4.19,2.65,7.84h-16.74Z"/>
  <path class="cls-1" d="M568.13,149.5c-5.32,1.17-8.96,2.97-10.94,5.38-1.98,2.41-2.96,5.49-2.96,9.23,0,3.99,1.37,7.35,4.11,10.06,2.74,2.72,6.75,4.08,12.04,4.08,3.98,0,7.47-.68,10.48-2.04,2.2-1.02,4.41-2.72,6.64-5.1,.19,1.42,.39,2.47,.58,3.13,.19,.67,.61,1.63,1.25,2.9h15.95c-.89-2.04-1.47-3.72-1.73-5.03-.26-1.31-.4-3.13-.4-5.45v-21.75c0-2.32-.42-4.75-1.25-7.31-.84-2.55-1.98-4.52-3.42-5.91-2.06-2.01-4.63-3.33-7.72-3.97-3.09-.63-7.18-.95-12.27-.95-3.17,0-6.12,.26-8.85,.79-2.73,.53-4.87,1.27-6.43,2.23-2.17,1.33-3.83,2.9-4.99,4.71-1.16,1.81-2.04,4.29-2.65,7.45l16.24,1.9c.67-2.13,1.55-3.59,2.63-4.36,1.39-.99,3.48-1.49,6.26-1.49,2.17,0,3.69,.46,4.55,1.39,.86,.93,1.29,2.55,1.29,4.87-2.11,.93-4.12,1.68-6.01,2.25-1.89,.57-6.03,1.57-12.4,2.99Zm18.41,7.28c0,2.35-.34,4.26-1.02,5.73-.68,1.47-1.84,2.71-3.46,3.73-1.63,1.02-3.39,1.53-5.28,1.53s-3.18-.47-4.11-1.41c-.93-.94-1.4-2.16-1.4-3.64,0-1.3,.47-2.46,1.42-3.48,.92-.99,3.1-1.99,6.55-3.01,2.53-.71,4.97-1.53,7.31-2.46v3.02Z"/>
  <path class="cls-1" d="M686.97,177.14v-30.94c0-6.68-1.33-11.59-4-14.72-2.67-3.14-6.38-4.71-11.13-4.71-3.23,0-5.93,.58-8.13,1.74-2.2,1.16-4.63,3.35-7.29,6.56-1.31-2.75-3-4.82-5.06-6.21-2.06-1.39-4.86-2.09-8.4-2.09-3.29,0-6.1,.63-8.42,1.9-2.33,1.27-4.63,3.4-6.92,6.4v-7.19s-15.86,0-15.86,0v49.26s17.03,0,17.03,0v-25.14c0-3.74,.63-6.43,1.88-8.07,1.26-1.64,2.86-2.46,4.82-2.46,1.2,0,2.25,.38,3.14,1.14,.89,.76,1.52,1.75,1.89,2.99,.22,.77,.33,2.24,.33,4.41v27.13s17.03,0,17.03,0v-25.42c0-3.56,.61-6.14,1.83-7.74,1.22-1.61,2.83-2.41,4.83-2.41,1.69,0,3.11,.85,4.24,2.55,.78,1.08,1.17,2.74,1.17,4.96v28.06s17.03,0,17.03,0Z"/>
  <polygon class="cls-1" points="132.19 91.99 707.01 91.99 707.01 89.47 129.67 89.47 129.67 122.43 132.19 122.43 132.19 91.99"/>
  <polygon class="cls-1" points="766.49 188.15 132.19 188.15 132.19 182.16 129.67 182.16 129.67 190.67 769.01 190.67 769.01 182.16 766.49 182.16 766.49 188.15"/>
</svg>