<?xml version="1.0" encoding="UTF-8"?>
<svg id="Layer_1" data-name="Layer 1" xmlns="http://www.w3.org/2000/svg" viewBox="0 0 221.13 215.81">
  <defs>
    <style>
      .cls-1, .cls-2 {
        fill: #fff;
      }

      .cls-2 {
        fill-rule: evenodd;
      }
    </style>
  </defs>
  <path class="cls-1" d="M57.45,93.71v-26.28h55.43c.3-.68,.64-1.35,1-2H55.45v26.64c.77,.45,1.43,1.01,2,1.65Z"/>
  <path class="cls-1" d="M148.53,23.74c.63,0,1.32,.25,1.6,.44,3.18,2.01,6.27,3.58,9.27,5.19,1.3,.81,3.32,.94,4.66,1.87,1.51,1.08,3.18,3.41,3.72,5.16,.93,2.87,.54,5.87,1.21,9.01,.26,1.07,.54,2.32,1.12,3.18,.62,1.48,1.66,2.95,2.19,4.43,2.07,5.73,3.05,11.19,4.39,17.68,2.46,11.3,3.27,18.82,1.25,32.48-.59,4.61-2.56,10.12-.99,14.29,.76,2.86,5.59,5.1,7.43,6.84,.41,.27,.94,.93,.85,1.26h-38.43c-.85,0-.85-1.39-1.83-1.65-.55,0-.83,1.27-1.49,1.27-.04,0-.09,0-.13-.02-.67,0-.41-.98-.41-1.57,0-.67,.19-1.03,.41-1.44,1.03-1.25,2.6-1.25,2.87-3.27,0-2.41-2.06-4.79-2.47-6.94-.27-1.26,.45-1.74,.45-3.18,0-1.16-.4-1.74-1.26-2.73-.13-.22-.49-.4-.85-.58-.14-.04-.27-.14-.32-.27-.04-.14-.04-.31,.18-.4,.94-.36,2.06-.86,3.13-1.26,.54-.22,1.07-.58,1.66-.81-1.39-1.83-2.33-4.57-3.09-7.44-.8-3.05-1.39-6.22-1.97-8.6-1.08,5.33-2.66,10.48-4.44,15.63-1.62,4.7-3.58,9.67-3.58,14.74,0,3.45,1.43,5.29,0,6.68-1.25,1.03-1.43,1.83-2.69,1.83h-24.32c-.18-.4,.23-.58,.81-.58,4.84-1.07,6.85-3.86,7.44-7.67,1.25-10.11-3.4-22.97-3-33.67,.4-11.11,3.85-22.22,13.48-26.83,2.11-1.1,4.34-1.67,6.77-1.67,2.89,0,6.03,.8,9.54,2.43,2.82-5.42,5.24-11.01,5.86-12.09,1.57-4.21,5.42-6.63,6-7.03,2.03-.98,1.43-2.6,.99-4.84-.99-4.25-3.26-7.25-6.77-9.72,.21-.12,.47-.17,.74-.17m0-1c-.48,0-.9,.1-1.24,.31l-1.34,.79,1.27,.89c3.47,2.44,5.49,5.34,6.37,9.12,.04,.21,.09,.44,.14,.66,.12,.59,.28,1.2,.28,1.81,0,.35-.09,.68-.36,.92-.19,.17-.42,.26-.63,.4-1.37,.89-2.63,1.96-3.71,3.18-.83,.94-1.56,1.97-2.12,3.09-.19,.38-.36,.76-.51,1.15-.26,.48-.73,1.48-1.41,2.94-1.04,2.23-2.43,5.22-3.99,8.27-3.3-1.43-6.28-2.13-9.09-2.13-2.58,0-4.94,.58-7.23,1.78-10.94,5.23-13.66,17.94-14.02,27.68-.19,5.06,.73,10.6,1.62,15.96,1.01,6.06,2.04,12.34,1.39,17.63-.58,3.78-2.6,5.89-6.56,6.79-.9,.03-1.32,.39-1.52,.7-.24,.38-.27,.84-.08,1.28l.26,.59h24.97c1.29,0,1.89-.64,2.48-1.25,.24-.26,.5-.52,.85-.81l.03-.03,.03-.03c1.27-1.23,.98-2.69,.68-4.24-.18-.9-.37-1.92-.37-3.15,0-4.32,1.51-8.64,2.97-12.81,.19-.54,.38-1.07,.56-1.6,1.49-4.31,2.61-7.97,3.48-11.39,.3,1.38,.64,2.86,1.01,4.29,.8,3.02,1.62,5.18,2.58,6.78-.2,.11-.39,.21-.57,.28-.57,.21-1.19,.47-1.78,.71-.47,.19-.92,.38-1.33,.54-.68,.26-1,.94-.78,1.64v.04s.03,.04,.03,.04c.15,.36,.45,.65,.85,.81,.15,.08,.34,.18,.43,.25l.06,.07c.81,.93,1.01,1.28,1.01,2.08,0,.5-.11,.83-.23,1.22-.18,.57-.39,1.22-.19,2.17,.19,1.03,.71,2.08,1.21,3.09,.59,1.2,1.21,2.44,1.23,3.57-.13,.79-.51,1.05-1.19,1.49-.46,.3-.98,.65-1.45,1.21l-.06,.07-.05,.09c-.24,.43-.53,.98-.53,1.91,0,.1-.01,.21-.02,.33-.04,.54-.1,1.27,.38,1.8,.24,.26,.56,.41,.93,.44,.08,.01,.17,.02,.25,.02,.76,0,1.22-.53,1.52-.94,.02,.04,.04,.07,.06,.1,.27,.46,.74,1.22,1.73,1.22h38.43s.7,.05,.95-.24c.28-.32,.15-.75,0-1.09-.3-.62-.65-1.23-1.17-1.7-.63-.58-1.52-1.19-2.45-1.83-.9-.62-1.8-1.23-2.64-1.93-.76-.63-1.52-1.36-1.91-2.28-.84-2.01-.74-4.29-.45-6.41,.17-1.29,.43-2.56,.68-3.84,.26-1.31,.53-2.67,.69-3.94,2.03-13.75,1.25-21.24-1.27-32.82-.17-.84-.34-1.67-.51-2.48-1.13-5.52-2.1-10.28-3.92-15.33-.32-.89-.79-1.74-1.24-2.57-.41-.76-.81-1.52-1.18-2.31-.17-.38-.38-.77-.49-1.16-.5-1.77-.69-3.54-.81-5.37-.11-1.7-.22-3.45-.78-5.17-.61-1.97-2.41-4.46-4.09-5.66-.85-.59-1.84-.89-2.79-1.17-.64-.19-1.28-.39-1.88-.71-.63-.33-1.25-.68-1.87-1.01-2.42-1.29-4.91-2.61-7.44-4.21-.42-.29-1.31-.59-2.13-.59Z"/>
  <path class="cls-2" d="M149.55,24.53c2.99,1.4,6.05,4.26,8.46,7.93,.4,.76-.59,1.74-1.43,.58-1.58-2.43-4.66-7.12-7.03-8.52Z"/>
  <path class="cls-2" d="M165.58,122.22c-2.64,1.52-5.01,1.88-8.46,1.88,.63-2.92-.22-5.21-1.21-7.17-.72-1.56-1.93-3.18-3.01-5.02-1.03-1.97-.49-3.94-.76-5.87-.26-1.97-1.92-3.81-3.9-3.63-2.01-2.15-2.77-5.33-3.49-8.11-.99-3.85-1.97-8.28-2.73-11.24-.05-.18-.14-.4-.31-.46-.23-.08-.5,.06-.54,.32-1.16,6.45-2.82,11.91-4.57,17.15-1.83,5.7-4.92,13.04-4.07,19.31,.18,1.02,.79,2.28-.18,3.44-.99,.99-.86,1.17-1.84,1.17-3.45,.13-7.26,0-10.44-.05-.67-.09,2.6-1.7,2.69-4.7,0-3.18-1.43-6.94-3.05-12.05-1.57-5.2-2.15-12.09-1.39-15.95,0-.36,.45-.58,.59,0,.45,2.41-.59,8.11,.81,10.93,.27,.59,1.7,.18,2.02-.4,2.78-3.13,4.12-9.99,4.52-13.98,.58-5.42-1.43-11.69,0-16.52,.94-3.32,3.18-6.32,6.67-7.71,1.37-.55,2.82-.75,4.17-.58,0,0,0,0,0,0,2.01-.13,5.46,2.29,6.44,3.85,.4,.85,.99,1.25,1.44,1.02,0,0,.12-.36,0-1.02,0-2.6,2.99-2.42,4.34-1.16,1.25,.98,2.33,4.34,1.66,6-.28,.76-.95,1.16-2.11,.85-1.92-.4-1.66-1.43-2.91-1.43-1.38,.1-1.97,1.35-2.05,1.92-.1,.51-.63,1.67-.97,1.44,0,.03,0,.06,.02,.09,.27,.98,.63,1.88,1.34,2.95,1.98,2.87,3.49,5.06,4.45,8.56,.58,1.61,.4,3.85,0,4.83-.46,.58,.4,1.03,.98,.58,.58-1.25,.58-2.24,.98-3.39,.59-1.44,.85-3.45,1.21-4.71,.8-1.97,2.24-3.8,2.64-6,1.17-5.01-.9-10.34-4.66-13.71-2.29-2.06-4.52-3.89-7.12-5.5,1.87-3.9,3.81-7.35,5.46-11.33,1.14-2.93,2.74-5.04,4.98-6.46-.11-.29,.7-.79,1.38-1.1,1.48-.68,1.48,0,2.56,.75,1.29,.9,2.82,1.53,4.25,.67,1.03-.8,.86-2.64,2.11-3.09,2.1-.81,3.36,1.56,3.76,3.49,.5,2.33-1.43,4.57-3.94,3.22-.85-.53-1.03-1.12-1.66-1.57-1.34-.9-2.86-.35-3.05,1.71-.12,1.44-.35,3.06-.39,3.91,.13,2.35,.2,5.16,.12,7.25-.13,3.13,.72,8.37,.27,10.21-.8,5.87-3.03,12.14-3.03,18-.19,5.68,.8,13.52,5.63,17.38,.59,.4,1.79-.45,1.79-1.25,.54-2.11,.36-4.35,.27-6.63-.19-3.81,.35-7.61,1.65-11.25,.8-2.23,1.74-4.29,3.14-6.53,.35-.58,1.02-.18,.76,.4-.18,0-2.6,4.89-3.63,9.09-1.25,4.48-1.79,11.33,.89,15.14,1.43,2.42,2.56,3.76,3.59,6.04,3.27,7.08,.85,13.04-4.13,15.99Z"/>
  <path class="cls-2" d="M148.47,80.97c-.31-.99,1.08-1.39,1.26-.14,.98,3.98,.84,6.98-.59,10.07,.99-2.64,0-6.85-.67-9.94Z"/>
  <path class="cls-2" d="M152.37,119.71c-1.35-2.23-2.42-6.23-2.42-8.73,0-1.43-1.03-.94-1.79-.94-.81,0-1.62,.05-2.24-.22-.49-.23-.44-.54,.09-.63,1.61-.4,2.55,.63,3.67-1.57,.35-.72,.45-1.53,.22-2.24-.26-.85-1.16-1.29-2.19-1.34-.72,0-2.02,.18-2.11,1.07-.05,.5,.22,1.17,.94,1.26,0,.31,.09,.71-.26,.85-.55,.18-1.66-.27-1.49,0,.76,1.07,.4,2.33,.1,3.45-.35,.85,.1,2.15,.71,3.4,.58,1.22,1.3,2.38,1.52,3.13,.4,1.35,.09,2.78,.36,3.9,.09,.58,.67,.81,.8,1.48,.18,.45,.85,.35,1.03,.35,.81-.17,.99-1.03,1.58-1.03,1.02-.13,2.41-.13,3.08,.67,.36,0,.58,0,.58-.22,0-.5-1.39-1.3-2.19-2.65Zm-4.58-14.91c.37,0,.95,.57,.68,.85-.18,.13-.31-.28-.9-.28-.36,0-.76,.28-.76,0,0-.31,.4-.57,.98-.57Z"/>
  <g>
    <g>
      <path class="cls-2" d="M41.22,99.95c-.16,.29-.32,.63-.47,.98l-9.26-.98c.4-1.62,.85-2.87,1.42-3.86,1.52-2.56,4.81-3.35,7.56-3.67,2.34-.26,4.75-.26,7.11-.2,3.29,.09,7.04,.5,9.23,3.28,1.29,1.65,1.91,4.01,1.91,6.08v11.02c0,.48,0,.93,.01,1.34,.03,1.37,.45,2.89,1.14,4.07h-8.99c-.69-.89-1.03-1.87-1.03-2.99-.46,.42-.91,.78-1.34,1.1-2.56,1.91-5.42,2.57-8.6,2.57-3,0-5.15-.81-6.85-2.24-1.57-1.44-2.42-3.01-2.42-5.02,0-.86,.12-1.66,.36-2.38,.7-2.17,2.54-3.68,4.63-4.45,.88-.32,1.91-.61,3.12-.82,1.41-.24,2.82-.52,4.22-.82,1.64-.35,3.3-.77,4.92-1.28,.69-.22,1.3-.43,1.3-.5,0-.46-.02-.84-.07-1.18-.25-1.63-2.17-2.1-3.6-2.1-.55,0-1.11,.07-1.65,.2-1.17,.3-2.03,.74-2.64,1.82Zm7.96,6.09c-.52,.22-1.04,.41-1.55,.59-.97,.34-2.01,.67-3.03,.9-.96,.22-1.94,.4-2.8,.9-.83,.48-1.44,1.17-1.44,2.23,0,1.75,1.68,2.64,3.23,2.64,1.88,0,4.09-.9,5.01-2.64,.45-.85,.59-1.88,.59-3.05v-1.57Z"/>
      <rect class="cls-1" x="64.72" y="83.25" width="9.72" height="34.8"/>
      <path class="cls-2" d="M92.4,83.25v9.41h5.42v7.3h-5.42v8.82c0,1.04,.13,1.88,.4,2.29,.18,.39,.77,.8,1.57,.8,.85,0,1.83-.22,3.05-.63l.8,6.67c-2.41,.41-4.65,.81-6.85,.81-2.42,0-4.26-.4-5.25-.99-1.16-.67-2.02-1.66-2.59-2.82-.68-1.26-.85-3.27-.85-6.14v-8.82h-3.59v-7.3h3.59v-4.57l9.71-4.85Z"/>
    </g>
    <g>
      <rect class="cls-1" x="64.72" y="123.34" width="9.72" height="34.89"/>
      <path class="cls-2" d="M81.11,123.34h9.67v6.49h-9.67v-6.49h0Zm0,9.54h9.67v25.35h-9.67v-25.35Z"/>
      <path class="cls-2" d="M96.97,132.88h9.14v4.17c.62-.81,1.26-1.5,1.91-2.1,2.09-1.87,4.4-2.52,7.17-2.52,2.55,0,4.79,.85,6.22,2.41,1.56,1.44,2.42,4.04,2.42,7.31v16.08h-9.9v-13.93c0-.95,.02-2.02-.44-2.88-.79-1.47-2.76-1.9-4.22-1.24-1.17,.53-1.98,1.75-2.29,2.96-.21,.8-.31,1.8-.31,3.01v12.09h-9.71v-25.35Z"/>
      <path class="cls-2" d="M156.17,158.23h-8.95v-3.99c-.52,.58-1.04,1.1-1.55,1.56-1.53,1.39-3.19,2.35-5.23,2.77-.77,.16-1.61,.24-2.49,.24-2.68,0-4.65-.84-6.27-2.41-1.43-1.62-2.24-3.98-2.24-7.4v-16.12h9.67v14.1c0,1.08,.24,2.38,1.03,3.18,1.48,1.49,3.82,1.25,5.24-.17,1.12-1.13,1.16-3.36,1.16-4.83v-12.27h9.62v25.35Z"/>
      <polygon class="cls-2" points="159.85 132.88 171.54 132.88 175.39 139.87 179.96 132.88 190.66 132.88 182.24 144.97 191.51 158.23 179.96 158.23 175.39 150.16 169.88 158.23 159.4 158.23 168.68 144.97 159.85 132.88"/>
    </g>
  </g>
  <g>
    <path class="cls-2" d="M38.43,191.06h-4.29l-.6,1.8h-3.91l4.62-11.15h4.13l4.62,11.15h-3.97l-.6-1.8h0Zm-.76-2.45l-1.36-3.97-1.36,3.97h2.72Z"/>
    <polygon class="cls-2" points="44.24 181.71 48.05 181.71 48.05 190.13 53.98 190.13 53.98 192.85 44.24 192.85 44.24 181.71"/>
    <polygon class="cls-2" points="53.92 181.71 65.5 181.71 65.5 184.48 61.59 184.48 61.59 192.85 57.84 192.85 57.84 184.48 53.92 184.48 53.92 181.71"/>
    <polygon class="cls-2" points="72.95 181.71 76.75 181.71 76.75 190.13 82.63 190.13 82.63 192.85 72.95 192.85 72.95 181.71"/>
    <rect class="cls-1" x="84.53" y="181.71" width="3.81" height="11.15"/>
    <polygon class="cls-2" points="91.11 181.71 94.64 181.71 99.26 187.9 99.26 181.71 102.85 181.71 102.85 192.85 99.26 192.85 94.64 186.76 94.64 192.85 91.11 192.85 91.11 181.71"/>
    <path class="cls-2" d="M113.34,181.71h3.81v6.69c0,.65-.11,1.25-.33,1.85-.21,.6-.6,1.09-1.09,1.53-.49,.43-.98,.76-1.52,.92-.71,.27-1.63,.38-2.67,.38-.6,0-1.25-.05-1.95-.11-.71-.06-1.31-.22-1.74-.44-.49-.22-.92-.54-1.3-.98-.44-.43-.71-.87-.82-1.31-.27-.71-.38-1.31-.38-1.85v-6.69h3.8v6.85c0,.6,.16,1.09,.55,1.41,.38,.33,.92,.49,1.58,.49s1.14-.16,1.52-.49c.38-.32,.54-.81,.54-1.41v-6.85Z"/>
    <polygon class="cls-2" points="118.83 181.71 123.02 181.71 125.19 185.19 127.21 181.71 131.39 181.71 127.53 187.14 131.72 192.85 127.48 192.85 125.09 189.32 122.69 192.85 118.45 192.85 122.69 187.09 118.83 181.71"/>
    <polygon class="cls-2" points="137.81 181.71 149.39 181.71 149.39 184.48 145.47 184.48 145.47 192.85 141.67 192.85 141.67 184.48 137.81 184.48 137.81 181.71"/>
    <polygon class="cls-2" points="151.07 181.71 161.24 181.71 161.24 184.1 154.88 184.1 154.88 185.89 160.8 185.89 160.8 188.18 154.88 188.18 154.88 190.35 161.46 190.35 161.46 192.85 151.07 192.85 151.07 181.71"/>
    <path class="cls-2" d="M171.02,191.06h-4.29l-.6,1.8h-3.92l4.62-11.15h4.13l4.62,11.15h-3.97l-.6-1.8h0Zm-.76-2.45l-1.36-3.97-1.36,3.97h2.72Z"/>
    <polygon class="cls-2" points="176.79 181.71 181.79 181.71 183.69 188.5 185.65 181.71 190.6 181.71 190.6 192.85 187.5 192.85 187.5 184.37 185.11 192.85 182.28 192.85 179.88 184.37 179.88 192.85 176.79 192.85 176.79 181.71"/>
  </g>
  <polygon class="cls-1" points="161.84 160.88 161.84 164.92 57.45 164.92 57.45 120.77 55.45 120.77 55.45 166.92 163.84 166.92 163.84 160.88 161.84 160.88"/>
</svg>